<svg id="Layer_1" data-name="Layer 1" xmlns="http://www.w3.org/2000/svg" viewBox="0 0 175.11 73.98">
  <defs>
    <style>
      .cls-1 {
        fill: #231f20;
      }
    </style>
  </defs>
  <path class="cls-1"
    d="M337.12,1094.67a7.78,7.78,0,0,0,1.64-5.54,2.43,2.43,0,0,1,.19-1c.36-.7.32-1.79.65-2.48A8.79,8.79,0,0,0,340,1083a7,7,0,0,1,.31-1c.39-1.48.76-3,1.14-4.47.05-.17.13-.29.17-.46a24.62,24.62,0,0,1,.35-2.7c.27-.75.4-1.69.67-2.45a8.18,8.18,0,0,0,.31-2.13,3.49,3.49,0,0,1,.2-1,5.59,5.59,0,0,0,.38-2.08,7.92,7.92,0,0,1,.46-3.2c.31-.73,0-1.89.36-2.67a4.8,4.8,0,0,0,.39-2.06c0-.57,0-1.15,0-1.72a8.1,8.1,0,0,1,.44-2.63,22.22,22.22,0,0,0,.26-3.32,1.05,1.05,0,0,1,.4-.63c.19-.17.39,0,.48.33.24,1,.48,2,.69,3a11.79,11.79,0,0,1,.55,3.71,11.29,11.29,0,0,1,.52,4.3,3.3,3.3,0,0,0,.2,1,6.06,6.06,0,0,1,.31,2.14,6.35,6.35,0,0,0,.27,2.7,5.41,5.41,0,0,1,.24,2.16c0,1,.55,1.55.52,2.58a5.4,5.4,0,0,0,.26,2.15,5.35,5.35,0,0,1,.26,2.15,6.47,6.47,0,0,0,.33,2.68c.39.91,0,2.28.44,3.21a5,5,0,0,1,.27,2.14,6.42,6.42,0,0,0,.31,2.69,3.2,3.2,0,0,1,.19,1,20.9,20.9,0,0,1,0,2.86c-.21,1.7.37,2.87.58,4.28a3.9,3.9,0,0,0,1,2.07l3.05.14a8.25,8.25,0,0,0,1.78-4.21c.38-.64.32-1.88.69-2.41.73-1,.82-3,1.47-4.09s.75-3,1.47-4.09a13.16,13.16,0,0,0,.53-1.93c.22-.62.55-1.08.75-1.71a22,22,0,0,0,.75-3c.22-1.35.93-1.89,1.14-3.17s.61-2.3.87-3.49.68-2.25.91-3.46.78-2.15.68-3.64a2.93,2.93,0,0,1,.24-1,26.73,26.73,0,0,1,.82-2.94,10.72,10.72,0,0,1,.65-3.63c-.1-1.45.43-2.45.62-3.68a4.55,4.55,0,0,1,1-2.2,7.41,7.41,0,0,1,.5,1.35,13,13,0,0,0,1.24,3.7c.27.53.49,1.18.77,1.66a19.15,19.15,0,0,1,.64,2.48,6.43,6.43,0,0,1,.88,2.82,31.32,31.32,0,0,1,1.26,3,20,20,0,0,0,1.22,3.74,1.23,1.23,0,0,1,.15.48c0,1.36.77,2.2.6,3.69a4.54,4.54,0,0,0,.3,1.54,17.75,17.75,0,0,1,.76,4.75,10.91,10.91,0,0,1,.52,4.3,1.43,1.43,0,0,0,.05.54c.54,1,.32,2.54.61,3.67a9.46,9.46,0,0,1,.38,2.67,5.09,5.09,0,0,0,.17,2.18c.39.85.31,2.19.79,3,.29.46.52,1.12.81,1.58s.85.68,1.22,1.32c.2.35.51.32.77-.11s.44-.75.75-.66c.77.21,1.21-.72,1.62-1.84,0-1.53.85-2,1.06-3.22a11.46,11.46,0,0,1,1.16-3.14c.4-.82.79-1.64,1.19-2.45,0-1.23.61-1.87.73-3a2.23,2.23,0,0,1,.27-1c.75-1,.88-2.87,1.42-4.15a5.13,5.13,0,0,1,.73-2.34,4.62,4.62,0,0,0,.53-1.95,17.1,17.1,0,0,0,.82-2.93c.33-1.12.61-2.29.91-3.45.25-1,.44-2.08.76-3,.38-1.08.5-2.44,1-3.41,0-1.21.67-1.84.67-3.06a7.9,7.9,0,0,0,.61-3.09,4.07,4.07,0,0,1,.45-1.38c.25-.59.56-.57.58,0,.05,1.19.65,1.89.61,3.11.49,1,.47,2.47.92,3.46.09,1.15.52,2,.67,3.07s.6,1.9.66,3.06c.44,1,.46,2.48.9,3.49a7.86,7.86,0,0,0,.47,3.18c.1,1.49.8,2.6.65,4.24a15.08,15.08,0,0,1,.48,2,8.56,8.56,0,0,0,.35,2.68,4.14,4.14,0,0,1,.21,1.61,4,4,0,0,0,.09,1.09,7.54,7.54,0,0,1,.43,3.2,6,6,0,0,0,.27,2.15,6.11,6.11,0,0,1,.22,1.59,4.68,4.68,0,0,0,.43,2l1,2.08c.93,0,1.87,0,2.8.15.56.07,1.3-1.15,1.41-2.32a14,14,0,0,1,.15-1.66,20.73,20.73,0,0,1,.81-2.93c.38-1,.12-2.23.49-3.2s.56-1.93.83-2.91a2.27,2.27,0,0,0,.09-.52c-.05-1.84.63-3.08.93-4.63.24-1.2.62-2.27.89-3.47a13.56,13.56,0,0,0,.65-3.66,3.78,3.78,0,0,1,.3-.94c.47-1.81,1-3.58,1.39-5.46.44-2,1.26-3.74,1.28-6.14a1.71,1.71,0,0,1,.15-.47c.37-1.29.65-2.69,1-4a11.75,11.75,0,0,0,.57-3.69,3.43,3.43,0,0,1,.9-2.62c.22,1,.56,2,.7,3s.68,1.86.63,3.09a7,7,0,0,1,.5,3.17,11.46,11.46,0,0,1,.52,4.3,2.94,2.94,0,0,0,.19,1c.53,1.2.11,3.06.72,4.2a1.26,1.26,0,0,1,.09.51c.07,1.86-.21,3.84.48,5.47,0,1,0,1.9,0,2.85a5.9,5.9,0,0,0,.11,1.64,13.05,13.05,0,0,1,.38,4.39,4.2,4.2,0,0,0,.17,1.63,5.09,5.09,0,0,1,.34,2.11c0,.95,0,1.91,0,2.86a5.38,5.38,0,0,0,.25,2.15c.31.73.24,1.82.6,2.52.54,1,1.06,2.17,1.52,3.14a1.5,1.5,0,0,0,1.48.23,4.65,4.65,0,0,0,1.26-1,3.65,3.65,0,0,0,1.09-2.4c.11-.91.49-1.54.63-2.49s.46-1.59.66-2.45.68-1.36.89-2.17a9.27,9.27,0,0,1,.74-2.35,8.4,8.4,0,0,0,.72-2.36c.16-.67.36-1.3.52-2a8.16,8.16,0,0,1,.93-2.11,16.07,16.07,0,0,0,.92-2.77,22,22,0,0,1,.65-2.47,31.44,31.44,0,0,0,1.61-5.18c.68-2.21,1-4.86,2.06-6.64a6.16,6.16,0,0,0,.21-1c.76-2.33,1.17-5.12,2.22-7.1.18-.35.09-1.12.36-1.45,0,0,.14.16.17.28a11.8,11.8,0,0,1,.1,2.79,7.54,7.54,0,0,0,.32,2.69,3.15,3.15,0,0,1,.16,1.06q-.12,11.74-.25,23.49a4.63,4.63,0,0,1-.28,1.57,4.08,4.08,0,0,0-.28,1.55c0,1,0,1.91,0,2.86a7.07,7.07,0,0,0,.16,2.2c.25.78.4,1.69.62,2.5a3.06,3.06,0,0,0,.4.81c.36.61.86.63,1.22,1.32s.71.3,1.07.35.76,0,1.2.06c.45-.87,1-1.72,1.38-2.74a18.1,18.1,0,0,1,.53-1.94c.55-1,1-2.27,1.63-3.15s.79-2.55,1.29-3.64a12.78,12.78,0,0,0,1.52-4c.6-1.22,1.2-2.41,1.79-3.65.39-.81.43-2,.9-2.82s1-1.84,1.41-2.79a2.61,2.61,0,0,0,.3-.93,4.68,4.68,0,0,1,.81-2.26c.38-.67.33-1.79.69-2.42a15.69,15.69,0,0,0,1.12-3.19c.32-1.11.95-1.8,1.1-3.22,0-.23.26-.12.42.23a4.26,4.26,0,0,1,.49,2,4.25,4.25,0,0,0,.14,1.64,6,6,0,0,1,.37,2.66,6.86,6.86,0,0,0,.36,2.68,3.78,3.78,0,0,1,.14,1.06c0,.95,0,1.91,0,2.86s.49,1.62.5,2.58a6.89,6.89,0,0,0,.37,2.67,4,4,0,0,1,.15,1.64,7.19,7.19,0,0,0,.45,3.18c0,1.24.56,1.94.66,3.08,0,.33.17.84.29.89.49.18.8,1.11,1.23,1.27a3.4,3.4,0,0,0,2,.11c.34-.07.64-.73,1-1a3.51,3.51,0,0,0,1.17-2.25,4,4,0,0,1,.25-1c.45-1,.94-1.85,1.4-2.82a8.65,8.65,0,0,0,1.34-3.54c.46-.95.88-2,1.39-2.84a21.1,21.1,0,0,0,1.11-3.2c.38-1.07.91-1.92,1.35-2.91.11-.26.07-.78.17-1.06.34-.9.72-1.74,1.09-2.61a7,7,0,0,1,1.17-3.09,7.93,7.93,0,0,0,.72-2.38,3.64,3.64,0,0,1,.36-.86c.25-.56.47-.59.66-.1a7.71,7.71,0,0,1,.36.88c.18.65.29,1.37.49,2s.55,1.11.7,1.78a8.11,8.11,0,0,0,.5,2c.27.53.52,1.11.77,1.67s.63,1.42,1,2.08c.61,1.2.66,3.16,1.4,4.19a2.69,2.69,0,0,1,.25,1c.2,1.71,1.17,2.49,1.24,4.34.24.57.49,1.15.74,1.72a11.8,11.8,0,0,1,.55,1.3c.14.47.18,1.07.31,1.55s.37.87.53,1.33a7.3,7.3,0,0,1,.43,1.44,8,8,0,0,0,1.2,3.08c.4.77,1,1,1.45,1.64.19.28.57.2.83.06.44-.24.76-1.1,1.27-1.07.41-.76.84-1.52,1.24-2.3a3.33,3.33,0,0,0,.27-1.56,4.36,4.36,0,0,1,.45-2,9.58,9.58,0,0,0,.78-2.29c.22-1,.5-2,.77-3a19.06,19.06,0,0,0,.8-2.92c.15-1.16.59-1.9.76-3a12.7,12.7,0,0,1,.76-3c.43-1,.25-2.23.54-3.15.49-1.6.82-3.35,1.29-5a6.36,6.36,0,0,0,.37-2.09,5.82,5.82,0,0,1,.47-2c.23-.82,0-1.91.35-2.69a4.88,4.88,0,0,0,.38-2.07,7.82,7.82,0,0,1,.06-1.7,14.23,14.23,0,0,0,.62-3.68,1.1,1.1,0,0,1,.16-.47,7.78,7.78,0,0,0,.42-2.64,13.48,13.48,0,0,0,0-3.46,3.13,3.13,0,0,0-.31-.89,13,13,0,0,1-2.2-2.37c-.36,0-.78-.28-1.08,0a12.64,12.64,0,0,0-1.25,1.19,4,4,0,0,0-.83,2.77,5.93,5.93,0,0,1-.17,2.21,8.51,8.51,0,0,0-.44,3.2,9.23,9.23,0,0,1-.13,2.23,9.71,9.71,0,0,0-.51,3.17,10.63,10.63,0,0,0-.62,4.24,5.08,5.08,0,0,1-.37,1.5c-.27,1-.52,2-.76,3a2.53,2.53,0,0,0,0,.56,4.32,4.32,0,0,1-.41,2.05,6.9,6.9,0,0,0-.89,2.8,19.78,19.78,0,0,0-.67,2.44c-.25.6-.3,1.39-.51,2-.27.79-.42,1.67-.64,2.49s-.45,1.58-.68,2.38a8.51,8.51,0,0,1-1.4-3.45,4.14,4.14,0,0,0-.26-1c-.49-1.36-1.31-2.24-1.44-4.12-.56-1.28-1.1-2.62-1.7-3.81-.42-.84-.39-2.11-.82-2.92a27.6,27.6,0,0,1-1.12-2.57,2.08,2.08,0,0,1-.1-.53c-.2-1.69-1.17-2.48-1.24-4.32l-.75-1.71a6.89,6.89,0,0,1-.85-2.85c-.54-1.31-1-2.75-1.9-3.19-.33-.75-.82-.88-1.22-1.33-1.15-1.29-1.93-1.15-2.76.47-.27.53-.52,1.09-.76,1.6,0,.66,0,1.23-.07,1.8a7.2,7.2,0,0,1-.16,1.63c-.28.77-.32,1.81-.63,2.48s-.35,1.76-.66,2.48-.39,2.12-.88,2.84a11,11,0,0,0-.74,2.33c-.36,1.09-.95,1.87-1.33,2.94a18.07,18.07,0,0,1-1.11,3.19,4.48,4.48,0,0,0-.76,1.65,14,14,0,0,1-2.2,4.89,4.4,4.4,0,0,1-.75-2.87,8,8,0,0,0-.41-3.22,3.07,3.07,0,0,1-.09-1.08,9,9,0,0,0-.5-3.74,12.16,12.16,0,0,0-.53-3.72,7.66,7.66,0,0,0-.5-3.18,2.28,2.28,0,0,1,0-.54,5.42,5.42,0,0,0-.45-2.59,5.06,5.06,0,0,1-.68-2.41,40,40,0,0,1-1.08-4.53c-.2-.87-.51-1.76-1-1.92a3.63,3.63,0,0,1-1.55-1.12c-.47-.53-1.09-.36-1.67-.09a21.19,21.19,0,0,0-2,4c0,.93,0,1.89,0,2.84,0,.56-.09,1.1-.16,1.64a3.82,3.82,0,0,1-.15.48c-.5,2-1.07,3.91-1.51,6a2.88,2.88,0,0,1-.15.47c-.31.72-.63,1.43-.94,2.14a5.9,5.9,0,0,1-.93,2.74c-.32.71-.26,1.85-.69,2.42-.58.76-.67,2.24-1.11,3.19-.51,1.12-1.07,2.15-1.6,3.24a2.83,2.83,0,0,0-.32.9,7.77,7.77,0,0,1-1.19,3.09c-.16.37-.32.42-.43.14a1.3,1.3,0,0,1-.11-.49c0-1.72,0-3.43,0-5.11a7.05,7.05,0,0,1-.52-2.64c.05-3.44.06-6.88.09-10.32a4.64,4.64,0,0,0-.24-1.58,4.53,4.53,0,0,1-.26-1.59c0-1.52,0-3,.06-4.41-.16-.49-.25-.83-.36-1.13a5.07,5.07,0,0,1-.19-1.63,12.34,12.34,0,0,0-.11-2.23,10.36,10.36,0,0,1-.41-2.65,10.44,10.44,0,0,0-.42-4.35,3.17,3.17,0,0,1-.07-1.1,11.66,11.66,0,0,0-.48-3.75,6.56,6.56,0,0,0-.57-1.87,11.76,11.76,0,0,0-1.43-1.71,1.42,1.42,0,0,0-.81-.28c-.18,0-.38,0-.56-.06-.82-.36-1.38.94-2.07,1.39-.37.24-.26,1.34-.52,1.93a4.77,4.77,0,0,0,0,3.62,1.09,1.09,0,0,1,0,1,3.77,3.77,0,0,0-.32,1.53,19.08,19.08,0,0,1-.08,2.28,18.68,18.68,0,0,1-.56,1.94c-1.77,7.15-3.71,14.13-5.5,21.28-.43.77-.36,2.17-.86,2.86a10.71,10.71,0,0,0-.9,2.8c-.4,1.24-.58,2.8-1.25,3.7a2.14,2.14,0,0,0-.27,1,5.5,5.5,0,0,1-.83,2.24c-.4.82-.39,2.11-.88,2.84-.27.4-.44.52-.66-.06a4.83,4.83,0,0,1-.44-1.41c-.1-1.48.09-3-.47-4.36a7,7,0,0,1-.08-1.66,7,7,0,0,0-.09-1.65,8.47,8.47,0,0,1-.44-3.22,15.22,15.22,0,0,1-.6-3.68,13.48,13.48,0,0,1-.44-2.63c0-1.34-.7-2.26-.54-3.73a4,4,0,0,0-.19-1,22.06,22.06,0,0,1-.89-5.25c-.49-1.17-.61-2.73-1-4,0-1.18-.66-1.86-.62-3.09a17.67,17.67,0,0,1-.72-1.77c-.29-1-.53-2-.75-3a3.71,3.71,0,0,1-.07-1.11c.21-1.86-.45-3.19-.7-4.77a3,3,0,0,0-.58-1.22c-.22-.31-.54-.35-.74-.69-.82-1.34-1.76-.89-2.68-.84-.65,1-1.62,1.13-2.06,3,0,2.9-.07,6-.1,9a7.94,7.94,0,0,1-.47,3.19,3.1,3.1,0,0,0-.13,1.07,4.87,4.87,0,0,1-.4,2.07c-.35.77-.05,1.92-.35,2.67a10.44,10.44,0,0,0-.53,3.15c0,.51-.42.92-.45,1.42a22.91,22.91,0,0,1-1,5.16,3.3,3.3,0,0,0-.23,1c.11,1.48-.48,2.41-.69,3.64s-.62,2.28-.92,3.44c-.35,1.32-.65,2.67-1,4a5.52,5.52,0,0,0-.38,1.48,7.16,7.16,0,0,1-.3,2.15c-.26.76-.44,1.63-.69,2.41-.29,1-.7.83-1-.18a23.07,23.07,0,0,0-.59-2.54,3.68,3.68,0,0,1-.19-1.62,7.58,7.58,0,0,0-.25-1.57c-.27-1.39-.68-2.64-.92-4.08-.2-1.22-.66-2.27-.88-3.49-.25-1.42-.63-2.69-.92-4.07a6.61,6.61,0,0,1-.25-1.59,4,4,0,0,0-.37-2.06,8,8,0,0,1-.84-2.87c-.37-.66-.28-1.88-.62-2.48-.81-1.4-.91-3.75-1.74-5.09a3.34,3.34,0,0,1-.23-1.58,4,4,0,0,0-.23-1.59c-.45-1-.86-2-1.36-2.9a6.81,6.81,0,0,0-1.42-1.7,2,2,0,0,0-1.09-.32c-.37-.05-.75,0-1.13-.06l-1.49,2.81c0,2.11-.07,4.19-.1,6.28a9.51,9.51,0,0,1-.58,4.25,7.73,7.73,0,0,1-.36,2.69c-.33.7-.34,1.72-.64,2.49a27.83,27.83,0,0,0-.79,2.94,10.45,10.45,0,0,1-.66,3.64c-.48,2-1,4-1.56,5.93a34.69,34.69,0,0,1-1.74,5.71,11,11,0,0,0-.76,2.94c-.21,1.37-.95,1.9-1.15,3.17a8.66,8.66,0,0,1-1.43,3.41c-.46-.46-.29-1.64-.64-2.24a4,4,0,0,1-.21-1.6,5.51,5.51,0,0,0-.09-1.1c-.28-1.18-.68-2.27-.87-3.51-.21-1.41-.77-2.61-.67-4.24a1.8,1.8,0,0,0-.27-1c-.67-.94-.73-2.6-1.15-3.84a12.14,12.14,0,0,0-.66-2.43c-.49-.72-.51-2-.84-2.88-.4-1.06-.86-2-1.3-3-.09-1.68-.78-2.52-1.24-3.68a3.12,3.12,0,0,1-.35-.89,7.44,7.44,0,0,0-1.07-3.23,25.26,25.26,0,0,1-1-3.33c-.41-1.05-.87-2-1.3-3-.06-1.73-.81-2.49-1.26-3.66a10.84,10.84,0,0,1-.48-2c-.34-1.81-1.4-1.77-2-3a4.86,4.86,0,0,0-2,0,3.58,3.58,0,0,0-1.46,1.5,9.8,9.8,0,0,0-.52,1.94,2.73,2.73,0,0,0,0,2,9.09,9.09,0,0,1,.06,4.33c-.49,1.43-.25,3.41-1,4.61.11,2-.83,3.37-.72,5.35a6.32,6.32,0,0,0-.53,2.55c0,1-.53,1.61-.55,2.53a8.22,8.22,0,0,1-.61,3.1,19.24,19.24,0,0,1-.6,2.51c-.08.8-.46,1.27-.54,1.95-.11,1-.52,1.62-.61,2.5-.13,1.15-.71,1.81-.71,3l-.76,1.69a7.05,7.05,0,0,0-.38,1.49c-.17.85-.48,1.57-.66,2.45s-.65,1.38-.89,2.19a11.45,11.45,0,0,1-.73,2.36c-.23.4-.42.44-.65-.2a4.91,4.91,0,0,1-.41-1.43,8.06,8.06,0,0,0-.37-2.67,4.78,4.78,0,0,1-.19-1.63c0-.74-.07-1.49-.11-2.23-.44-.9-.28-2.17-.47-3.18a17.07,17.07,0,0,1-.5-3.18c0-.68-.38-1.31-.44-2-.09-.92,0-1.92-.07-2.85,0-.52-.38-1-.41-1.47a17.44,17.44,0,0,0-.57-3.71c-.17-.61.09-1.56-.2-2.17a24.39,24.39,0,0,1-.58-2.55c-.24-.79-.37-1.71-.62-2.49a24.39,24.39,0,0,0-.58-2.55c-.31-.69-.23-1.84-.65-2.45a13.61,13.61,0,0,1-.85-2.87c-.53-1.53-1.38-2.59-1.59-4.58l-1.62-3.66a6.83,6.83,0,0,0-2.66-.3c-.31,0-.51.43-.72.78a3.69,3.69,0,0,0-.5,1.95c0,1.14,0,2.29,0,3.44a5.42,5.42,0,0,1-.38,2.07,1.31,1.31,0,0,0-.16.47c0,1-.11,1.91-.06,2.85.06,1.29-.45,2.06-.57,3.12s-.07,2.28-.11,3.42a3.55,3.55,0,0,1-.2,1,5.4,5.4,0,0,0-.37,2.08c0,.57-.06,1.16,0,1.72.09,1.27-.43,2.07-.55,3.12-.17,1.44,0,3.06-.6,4.28a3.91,3.91,0,0,0-.08,1.1,8.07,8.07,0,0,1-.45,3.19c-.24.53-.21,1.44-.49,2-.38.75-.18,1.82-.37,2.67a2.25,2.25,0,0,1-.16.48,4.89,4.89,0,0,0-.35,2.09,4,4,0,0,1-.54,1.91S335.25,1099.58,337.12,1094.67Z"
    transform="translate(-335.89 -1024)"></path>
</svg>