<svg id="Layer_1" data-name="Layer 1" xmlns="http://www.w3.org/2000/svg" viewBox="0 0 153.59 172.98">
  <defs>
    <style>
      .cls-1 {
        fill: #0f0619;
      }
    </style>
  </defs>
  <path class="cls-1" d="M313.07,963.29v-.1l-.05,0Z" transform="translate(-188.35 -879.46)"></path>
  <path class="cls-1" d="M245.91,962.8c0,.15,0,.3,0,.43l0-.17-.06-.2Z" transform="translate(-188.35 -879.46)"></path>
  <path class="cls-1" d="M257,962.69c0-.08,0-.15-.05-.22a.31.31,0,0,1,0,.09Z" transform="translate(-188.35 -879.46)">
  </path>
  <path class="cls-1" d="M254.29,962.58a.44.44,0,0,0,0-.1v.09Z" transform="translate(-188.35 -879.46)"></path>
  <path class="cls-1"
    d="M325.49,955.92c1.19.15,2.18-2.66,3.35-2.81.38-.05.52-1.61.56-3.87l0-.12c1,1.15,2.41.76,3.2-.93v.17l1-1.5a24.44,24.44,0,0,1-.31-4.37c.08-2.21.1-5.06.54-5,.87,0,1.45-3.13,2.19-4.51a14.31,14.31,0,0,0,.78-3.84,24.1,24.1,0,0,0-.29-6.83c-.26-1.39-.57-2.43-.86-3.52a15.86,15.86,0,0,1-.36-5,13.73,13.73,0,0,0-.17-2.74c-.2-1.16-.41-1.32-.55-.71s-.28,1.92-.41,2.9l0-.23a21.57,21.57,0,0,1-.07,3.45c-.16,1.06-.41.86-.66.42a19.12,19.12,0,0,1-1-4.24c-.48-2.76-.52-5.09-.1-6.1.57-1.34,1.15-2.47,1.7-4a12.63,12.63,0,0,0,0-4.12c-.6-5.73-.95-7.41-1.71-7.11a3.1,3.1,0,0,0-2.14,2c-.64,1.48-1.18.21-1.83-4,.29-1.27.59-2.46.87-3.82a10.34,10.34,0,0,0,0-1.72,8,8,0,0,0-.23-1.48c-.15-.36-.31-.57-.45-.52-2,.69-4.07-.45-6.16-2.08-.71-.54-1.35-.17-1.8,2.4-.34,1.93-.78.69-1.23-.44l0-.22c-.09.37-.17.74-.26,1.11h0l0,.16c-.4-.07-.41,4.16-.85,2.65-.57-2-.77-.73-1,1.17s-.7.28-1.1-.81v-.06l-.48,0c-.2-.52-.48-1.6-.55-1.21-.6,3-1.64.38-2.22,3.14-.26,1.28-.48,1.76-.87.44-.13-.44-.33-1.08-.28.51,0,.52.14,1.15.2,1.76s.12,1.18.17,1.77c-.08.1-.16.46-.23.26-.3-.81-.6-2-.89-2.62-.09-.18-.17.76-.26,1.29-.68-.74-1.38-1.74-1.75,2,0,.41-.15.54-.24.57-2,.66-3.65,6.08-5.67,6.18-1.23.06-2.32,2.06-3.51,2.64a6.63,6.63,0,0,0-2.47,3.29c-1.07,2.41-2.31,2.34-3.47,3.33-.71.61-.73.32-.46,6,.14,2.76-.22,6.32-.68,5.8-.7-.8-1.38-1.27-2-.65a4.85,4.85,0,0,1-.22-1.26,10,10,0,0,1,.05-1.63,6.1,6.1,0,0,1,.41-1.67c.31-.38.64-.31,1-.57.13-.1.25-.64.18-1.82s-.24-1.72-.38-1.64c-.72.46-1.52,0-2.05,2.92-.05.26-.15.09-.24,0s0-.27,0-.4c0,.13,0,.26,0,.38l0,.14c-.15.33-.36.32-.43,1.08a5.8,5.8,0,0,0,.27,2,6.84,6.84,0,0,1,.52,3.26,3.76,3.76,0,0,1-.4,1.51l0-.33,0,.19h0c-.06.26-.13.53-.19.79h0c-.06-.54-.13-1.08-.19-1.62h0l0-.39h0l0,.25c-.21-1.72-.43-3.44-.65-5.17,0,1.32,0,3.23-.39,1.35-.5-2.69-1-2.86-1.4-2.72s-.64,1-.47,5.38c0,1.26.15,2.56.22,3.8-.28.27-.44-.92-.62-2.77-.51-5.25-.59-4.37-1-3.93s-1,.83-1.56-.06c-.41-.66-.75-.1-1.12.13a30.36,30.36,0,0,1-3.7,2.06c-.53.24-.84-1.7-1-5.61-.27-6.79-.38-7.76-1.28-9.87-.35-.83-.72-1.65-1-1.76a14.17,14.17,0,0,0-4.58-1c-.74,0-1.42,1.2-2.13,1.88s-1.6,1.6-2.4,2.39c-.36.36-.73.32-1.14-.3-1.81-2.68-3.51-2.57-5.22-2.76a20.13,20.13,0,0,1-2.69,0c-.61-.15-1.21.48-1.9-3-.16-.82-.41-1-.59-1.1-1.16-.42-2.36-2.3-3.46-1.29-1.49,1.36-3.13,0-4.75-1.6a4.41,4.41,0,0,0-4.16-1.15,23.45,23.45,0,0,0-6.84,1.91c-1.47.67-2.86,2.66-4.38,2.51-.38,0-.72.67-1,1.42-.88,2-1.83,2.31-2.93.22-.5-1-1-1.66-1.5-2.55-.15-.27-.32-.68-.38.19-.46,6.21-1.63,4.12-2.58,3.79s-2,.68-3.05-2.42c-.18-.51-.38-.14-.56,0-1.61.92-3.24,1.26-5-2.75-.15-.33-.33-.7-.44-.44-1,2.39-2.24.21-3.35.41-.94.16-1.91-.43-2.88-.83-.49-.2-1-.42-1.21,2.24-.06.66-.19,1.27-.32,1.18-1-.65-1.75,2-2.76.72-1.76-2.28-1.76-2.25-3,2.36.61,1.49,1.12,1,1.62,3.21a9.55,9.55,0,0,1,.27,2.49c0,.51-.09,1.19-.15,1.12-1.11-1.16-2,2-3.25-1.47-.06-.16-.18.36-.18.76a17.57,17.57,0,0,0,.16,1.85c.29,2.26.62,3.32,1,3.76a8,8,0,0,1,1.2,1.78c.51,1,1,2.08,1.28,6.46a6.3,6.3,0,0,0,.67,3c.45.68.9,1.34,1.35,1.93a8.68,8.68,0,0,1,1.19,1.4c2.2,3.87,4.41,8.64,6.59,11.52,1.43,1.89,2.92,5.94,4.29,5.4.19-.07.39.17.59.53,2.48,4.45,4.83,4.78,7.23,6.75a15,15,0,0,0,3.06,1.92c.5.25,1,2.7,1.49,2.71s.73-1.64,1.19-1.07c.3.35.6.86.9,1.3l0,.17c1.07-2,2.33-.2,3.53.5.24.14.54,1.1.74.84,1.24-1.53,2.64.11,4,.32a20.11,20.11,0,0,1,3.42.79c.23.08.5.82.75,1.51s.43.58.64-.21c.83-3.27,1.84-2.86,3,1.44a11.91,11.91,0,0,1-.06-1.29c.07-.77.19-.17.29.46.32-1.62.72-2.43,1.18-2.4,2.18.16,4.32-.37,6.56,1.2a9.46,9.46,0,0,1,.39,1.71c.1-.42.19-.87.29-1.26.3-1.12.72,1.66,1,1.28s.33-2.31.68-1.93a4.13,4.13,0,0,1,.68,1.9c.51-4.45,1.39-3.2,2.3-2,.29.39.61,5.49.82,2.08.17-2.79.6,1.05.71.14.33-2.65.69-.68,1.1,1.57.14.76.31.65.36-.24s.06-2.41.14-3.3c.26-2.62.77-2.24,1.21,1.38.28,2.32.5,3.23.78,2.63.43-.93,1.07.35,1.25-3.18.05-1,.2-.9.36-.19.4,1.78.71,2.61.67-1a4.85,4.85,0,0,1,.31-2.32c.25-.44.49-1.33.76-1.24,2.74.9,5.25-2.09,7.91-2.57.51-.09.93.61,1.43,3.52.42,2.41.67,2,.65-1.2,0-4.68.4-4.25.94-3.37l0,0,0,.08a13.58,13.58,0,0,0,.32,3.18c.21.43.24-.88.3-1.84a2.43,2.43,0,0,1-.22-.29l.07,0,0-.1c.6-3.94,1.41-5,2.43-4.43,1.34.79,2.64.55,4,.76v0s0-.11,0-.09v0l0-.05c.27-2,.59-3.5,1.1-3.52s1-.64,1.44-1.67.83-1.28,1.34-.8,1,1.68.71-3.47c.42-.91.83-3.25,1.26-2.37.6,1.2.89-.41,1.31-1V938l0-.11s0-.1,0-.15a3.52,3.52,0,0,1,0-.46.84.84,0,0,1,.19-.32V937l0-.11h0l-.06-.15a4.36,4.36,0,0,1,.2-.78l0,.24c.08-.37.17-.74.25-1.11h0l0-.19c.43-1.82.85-3.64,1.27-5.4.39,2.2.36,5.09.73,6.8a26.49,26.49,0,0,1,.58,4.7,1.13,1.13,0,0,0,0-.14l0,.39h0v.27a2.26,2.26,0,0,0,0-.26h0v0a10.89,10.89,0,0,0,.55,1.63c.25-3.87,1.09-.64,1.48-2.66l3.59,3.53,0,.09v-.05l-.05-.07h0c.11-2.8.39-4.64.92-2.45.42,1.69.67,1.46,1,.71s.53-.73.73-1.6c.57-2.47,1.25-1.86,2,.93a16.84,16.84,0,0,1,.35-3.08,6.66,6.66,0,0,1,2.61-1c.13,0,.31.55.44,1.12a12.59,12.59,0,0,1,.14,1.77,3.37,3.37,0,0,1-.18,1c-.19.52-.47.33-.45,2.36,0,1.53.55,4.06.92,3.83a31.81,31.81,0,0,0,2.39-2.3,12.47,12.47,0,0,1,2.31-1.38c.08,0,.2.34.3.62a8,8,0,0,1,.35,2.29,12.52,12.52,0,0,1,0,1.71c-.39,2-.77,4.07-1.42,3.17-.82-1.13-1.51-.07-2.18,1.21-.32.62-.29,2.39,0,4.63l0,0c-.21,1-.42,2.07-.62,3.11a1.16,1.16,0,0,0,0,.18,1.34,1.34,0,0,1,0-.2h0l.6-3c.19.63.39,1.69.56,1.74.6.2.6.08.92,4.13.57.46.56.36.26-3.34a17.4,17.4,0,0,1-.1-2.81c.08-.79.24-.48.39-.08a19.05,19.05,0,0,1,.83,5.31c.14,2,.42,2.57.64,1.84a10.67,10.67,0,0,0,0-4c-.11-.88-.27-1.64-.35-2.57-.15-1.58-.08-2.85.12-2.8,1.29.28,2.39-2.48,3.73-1.29a3,3,0,0,1,.44.73,3.11,3.11,0,0,1,.12.72,17,17,0,0,1,0,1.8c-.26,1.81-.64,2.48-1.1,2.06-.76-.7-1.31,1.55-2,1.9a6,6,0,0,0-.07,1.38,4.87,4.87,0,0,0,.24,1.28c1.46.14,3,2,4.19-2.56.63-2.46,1.44-3.4,2.39-2,.5.76.92-.23,1.34-1S325,955.87,325.49,955.92Zm6.27-14.35c.06-.15.19.17.27.53a38.34,38.34,0,0,1,.52,6c-.25-1.45-.51-2.8-.75-4.27A6,6,0,0,1,331.76,941.57Zm-1.59-24.69c.13-.39.35.06.53.24,0,1.53.07,3.09.08,4.57,0,1.16-.15,1.18-.3.6A14.62,14.62,0,0,1,330.17,916.88Zm-.34,25.49c.09-.74.23.07.35.72,0,.18,0,.37,0,.55,0,.63,0,2-.2,1.15A9.16,9.16,0,0,1,329.83,942.37Zm-3.51-3.12a4.72,4.72,0,0,1-.33-2.11c-.05-1.13,0-1.8.18-1.83.31,0,.55,1.2.77,3.1C326.74,938.73,326.54,939.21,326.32,939.25Zm.47,3.4a3,3,0,0,1,0,.34l0,.37Zm1.39.49a4.84,4.84,0,0,1-.08,1.25c-.12.06-.25-.22-.38-.47,0-.66.06-1.44.13-1.84C328,941.51,328.11,942,328.18,943.14Zm-1.87-52.68a11.46,11.46,0,0,1,.1,1.72c-.14,2.65-.4,3.23-.87,1.92a13.08,13.08,0,0,1-.25-1.43c0-.32-.05-.73-.05-.95C325.32,889.82,326,889,326.31,890.46Zm-1.13,24.2v0Zm-77.46,23.19c-.07.1-.17.46-.2.26-.13-.76-.25-1.63-.37-2.48.16.46.33.91.49,1.41C247.67,937.14,247.69,937.57,247.72,937.85Zm-4.6-3.55a1.42,1.42,0,0,1,.53-.47c1.07-.75,2.24.52,3.39,1.56-.25,2.22-.67,2.74-1.13,2.47a1.85,1.85,0,0,0-2.35.16c-.08.07-.19,0-.29-.31a6.83,6.83,0,0,1-.25-1.35A4.71,4.71,0,0,1,243.12,934.3Zm-1.74,0a5.34,5.34,0,0,1,.39,1.78c.1,1.19-.05,1.61-.2,1.61-.61,0-1.26-1.3-1.9-2.54C240.13,933.19,240.76,933.8,241.38,934.34Zm-1.78.94c-.64,3.19-1.61,1.66-2.46,1.75-.33,0-.71,0-1.28-2.85C237.16,932.92,238.24,931.21,239.6,935.28Zm-5.56-2.9c.19.09.37-.19.53,1.5,0,.25,0,.69,0,.89-.1,1.08-.3,1-.49.65a13.22,13.22,0,0,1-.61-3.65A2.81,2.81,0,0,0,234,932.38Zm-.57-.62c0,.13,0,.25,0,.38v-.38ZM231.41,933c.32-1.76.72-.63,1.14,1.33a15.85,15.85,0,0,1-.94,1.45,3.59,3.59,0,0,1-.23-1.13A10.55,10.55,0,0,1,231.41,933Zm-1.09-.31a3.55,3.55,0,0,1,.12.76,12.28,12.28,0,0,1-.06,1.35c-.66-1.14-1.23,1.66-2-2.54C229,931.17,229.6,930.54,230.32,932.64Zm-2.6-.75c.21,0,.43.21.64.35a17.69,17.69,0,0,1-.45,1.81c-.1.28-.27,0-.33-1.23A2,2,0,0,1,227.72,931.89Zm-1.34-.64a10.39,10.39,0,0,1,.23,1.55c.07.78,0,1.17-.12,1.08-.48-.35-1-.28-1.49-3.51C225.43,930,225.86,929.4,226.38,931.25Zm-3.82-2.89c.49-.35,1,0,1.84,3.59a12.85,12.85,0,0,1-1.68-1,5,5,0,0,1-.25-1.34A5.11,5.11,0,0,1,222.56,928.36Zm-11-12.73a25.29,25.29,0,0,1,2.08,2.68c2.29,3.41,4.58,6.87,6.77,7.13.23,0,.49.45.74,1,.17.36.43.65.38,2.81-1-.21-1.89,1.41-3-1.54-.14-.38-.29-.24-.43-.26-1.33-.16-2.7-1.73-4.1-3.84-.83-1.26-1.67-2.57-2.42-1.65-.08-.51-.15-1-.21-1.56C210.94,916.75,211,915.05,211.52,915.63Zm-4.41-6.35c.89,1.4,1.77,2.78,2.65,4.23a5.18,5.18,0,0,1,.45,1.24,9.27,9.27,0,0,1,.26,2.43c0,.42-.11.75-.18.74-.6-.12-1.23-1-1.75.21a12.35,12.35,0,0,0-.93-3.9,28.15,28.15,0,0,1-1.17-2.67C206.51,909.45,206.73,908.67,207.11,909.28Zm-1.3-.78a12.25,12.25,0,0,1,.57,2.89c-.22-.56-.45-1.11-.67-1.71,0-.1-.06-.52-.09-.79S205.75,908.36,205.81,908.5Zm44.7,41.79c-.91.55-1.79,2.17-2.75,1.08a2.82,2.82,0,0,0-2.29-1c-2-.18-4.17-2.58-6.17-1.9a4.4,4.4,0,0,1-2.68.19c-2.93-.82-5.86-1.88-8.79-2.8-.53-.17-1,.45-1.57-.25-1.74-2.27-3.41-2.51-5.13-4.1s-3.54-3.52-5.31-5.18a12.43,12.43,0,0,1-2.24-3.23c-.85-1.62-1.72-3.31-2.49-2.31-.4.53-.86-.32-1.32-1.52-.4-1-.8-2-1.21-3l.06.12c-.15-.3-.32-1-.44-.84-.94,1.22-1.93-.19-3-4.27a18.75,18.75,0,0,0-.74-2,6.26,6.26,0,0,1-.54-3.27c0-1.28.29-.73.48-.52.54.58,1.09,1.47,1.61,1.7.85.38,1.75,2.11,2.54,1.24.89,4.86,1.78,5.23,2.65,5.55.14.05.24-1.06.36-1.7a12.77,12.77,0,0,0,1.28,4.15,24.38,24.38,0,0,0,2.25,3.51q4.5,4.2,9,7.9c2.8,2.31,5.51,2.91,8.25,3.92.68.25,1.31-.63,2,0,1.82,1.72,3.53.77,5.37,2.85.63.72,1.23.08,1.84,0,.38,0,.74-.26,1.12-.14,2.3.71,4.6,1.5,6.9,2.26.23.07.47,0,.71.22a4.19,4.19,0,0,1,.36,2A5.62,5.62,0,0,1,250.51,950.29Zm-1.72-14c.67-.93,1.25-1.68,2-1a7.84,7.84,0,0,1,.77,3C250.63,939.29,249.48,938.55,248.79,936.33Zm3.83,12.73c-.16.22-.34.18-.52-.92-.09-.58-.07-1.24,0-1.28s.35.06.5,1.45A6.91,6.91,0,0,1,252.62,949.06Zm5.16,1c-.15.94-.37,1-.64.24a4.44,4.44,0,0,1-.1-1.63c.15-.88.36-1.25.63-.39A5.29,5.29,0,0,1,257.78,950.06ZM268,933.9a5.6,5.6,0,0,1-.09-.82,5.12,5.12,0,0,1,0-.76c.33-1.33.77-.3,1.18.06C268.94,935.18,268.52,935.18,268,933.9Zm1.41,10.56a2.42,2.42,0,0,1,0-.69.74.74,0,0,1,.34-.27c-.05.57-.1,1.16-.17,1.61S269.45,945.25,269.41,944.46Zm2.17.77v-.39l0,.71S271.58,945.3,271.58,945.23Zm2-14.53a3.27,3.27,0,0,1-.1-.45c0-.2,0-.4,0-.6l.1.44ZM279,954.3ZM283.15,927c-.14-.11-.28-.09-.42-.36s-.13-.83-.2-1.28c.07-.11.15-.5.21-.28.14.48.27,1.26.4,1.9l.12-1.2C283.22,926.13,283.19,926.54,283.15,927Zm1.67-2.21c-.16.44-.37.32-.56-.74a11.65,11.65,0,0,1-.1-1.74c.13-1.38.36-1.18.63.09a7.78,7.78,0,0,1,.1.91A9,9,0,0,1,284.82,924.74Zm1.14-.8c.15-3.76.16-3.88.72-2.79Zm10.19,5.18c-.1.45-.22.89-.38,0a5.2,5.2,0,0,1,0-2.2c.12-.29.27-.39.4.64C296.21,927.85,296.16,928.58,296.15,929.12Zm2.06-12c-1.3,1-2.62,1.89-3.95,2.79l0,.06.08-.16c-.17-3.15-.34-6.32.25-6.58a42.7,42.7,0,0,1,4.54-1.88c.45-.15.9-.84,1.42,1.3a4.94,4.94,0,0,1-.58,2.51A13.6,13.6,0,0,1,298.21,917.07Zm5.48-5.42c-.89,3-1.8,5.55-3.12.85.75-3.89,1.82-3.64,2.85-3.87.14,0,.3.41.36,1.58A6.89,6.89,0,0,1,303.69,911.65Zm1.12-.52a2.57,2.57,0,0,1-.13-.56c0-.27,0-.71,0-.79.1-.36.18,0,.2.9C304.89,910.89,304.85,911.16,304.81,911.13Zm2.29-3.26c-.17,1.45-.47.88-.75.41a4.87,4.87,0,0,1-.25-.72,3.18,3.18,0,0,1,.19-.53C306.75,906.16,307.23,906.71,307.1,907.87Zm1.51-.83c-.07,0-.16-.17-.24-.28s0-.51,0-.77a3.92,3.92,0,0,1,.25.32C308.62,906.57,308.63,907.05,308.61,907Zm2.11-16v0s0,0,0,0Zm-.4,40.54c-.11.62-.25.4-.38-.52a13.71,13.71,0,0,1-.13-2.77c.05-.88.2-.91.35-.16A13.3,13.3,0,0,1,310.32,931.55Zm.39-26.69a10.13,10.13,0,0,1-.25-1c.36-1.63.66-2.28,1.08-.11a5,5,0,0,1,0,.85C311.38,906,311,905.25,310.71,904.86Zm.94,25.5a3,3,0,0,1-.22-.74c-.08-.63,0-1.11.06-1.07s.09.2.13.41A4.18,4.18,0,0,1,311.65,930.36Zm.79-28.77s.05.07.08.15l-.13.25A2.69,2.69,0,0,1,312.44,901.59Zm.17,27.4c-.08,0-.19-.35-.26-.76a3.44,3.44,0,0,1,0-1.25c.16-.15.3.16.4,1.12A3,3,0,0,1,312.61,929Zm6.71-47.23c0,.55-.08.8-.18.78Zm-5.67,43.75s0-.06,0-.07.07.08.11.14Zm1-24.58c-.1.16-.22-.37-.22-1.06,0-.44.09-1,.15-.92a9.39,9.39,0,0,1,.37,1.25A4,4,0,0,1,314.6,900.93Zm.87,12.19s.1,0,.14.21a5.28,5.28,0,0,1,.06,1.58c-.08-.15-.19-.13-.25-.49A2.33,2.33,0,0,1,315.47,913.12Zm.36,31.18a3.39,3.39,0,0,1-.22-.81,14.14,14.14,0,0,1,0-1.45,3.53,3.53,0,0,1,.22.84A13.58,13.58,0,0,1,315.83,944.3Zm1.22-.65L317,943l.11.16Zm1.5-.14v0Zm2.61-4s0-.11,0-.1l.06,0Zm2.56,2c-.23-.15-.44.58-.7-.82a12.31,12.31,0,0,1,.06-1.39.39.39,0,0,1,.56-.08,2.12,2.12,0,0,1,.27,1C324,941.72,323.85,941.65,323.72,941.56Zm.84-46.59c-.11,1.3-.3,1.81-.54,1.81s-.69-.49-1-.14c-2,2.37-4.24,1.65-6.22,4.58-.55.82-1.15.67-1.81-1.05a4.93,4.93,0,0,1,1.13-2.79c2.42-2.67,4.82-5.56,7.33-6.79.26-.12.58.53.87,1A12.15,12.15,0,0,1,324.56,895Z"
    transform="translate(-188.35 -879.46)"></path>
  <path class="cls-1"
    d="M249.08,1002c.69.39,1.26-1.06,2-.33.06.06.15-.62.14-1.06a16.91,16.91,0,0,0-.19-1.79c-.27-1.69-.53-2.57-.86-2.53-.51.07-1-.34-1.58-.54l0,0h0l0,0,0,0c-.26.46-.56-.12-.86-.94a9.38,9.38,0,0,1-.38-3.78c.06-2.27-.17-4.11-.47-4.32a4.74,4.74,0,0,0-1.58-.64c-.29-.08-.58.62-.85-.12-.58-1.58-1-.81-1.55-1.17s-.93.06-1.41,0a29.55,29.55,0,0,1-3.41-1c-.67-.22-1.39-1.24-2-.71-1.42,1.21-3-1.67-4.47-1.95-.24-.05-.5-.52-.73-.52-2.84,0-5.7-.69-8.7-4.77-1.39-1.88-2.69-.85-4.12-3.93-1.43,1.84-3.16-3.28-4.62-2.16-.18.14-.39.07-.58-.38-1.43-3.23-2.78-3.53-4.18-5.82s-2.9-4.58-4.35-6.77a11.39,11.39,0,0,0-1.49-1.83c-.58-.58-1.15-.38-1.76-3.62a1.82,1.82,0,0,0-.59-1.11c-1-1.5-2-2.86-3-4.52a9.88,9.88,0,0,1-1.5-3.85c-.54-2.57-1-4.29-1.6-3.78-.23.22-.5-1.1-.7-2.64a25,25,0,0,1-.23-3.87c0-1.45.25-1.3.46-.84.85,1.94,1.71,3.8,2.57,6a9.51,9.51,0,0,0,3.13,4.36c.45.44.49-1.36.48-3.6a22.9,22.9,0,0,0-1.63-2.18c-.9-1-1.8-3.57-2.71-6.28a13,13,0,0,1-.34-2.28c-.08-1.15.07-1.6.21-1.73.8-.81,1.64-.86,2.56.68A2.86,2.86,0,0,0,199.5,927a5.08,5.08,0,0,0,.19-1.78,18.91,18.91,0,0,0-.31-2.51,1.86,1.86,0,0,0-.29-.85c-1.28-1.3-2.56-2.61-3.84-3.77-.18-.17-.42,0-.5.7-.34,3.13-.94,2.15-1.53,1.6a12.85,12.85,0,0,0-2.06-1.71c-.57-.34-1.15-.88-1.68-3.22a7.42,7.42,0,0,0,.12,2.95,28,28,0,0,1,1.09,5.31c.68,4.67,1.37,9.06,1.81,14.86.3,4.11.78,6,1.42,6.33,1.42.66,2.91,5.63,4.36,8.15,1.05,1.83,2.11,4.45,3.16,5.67.63.73,1.39,1.69,2,6.59-1.3.65-2.67-1.5-4.09-5a11.23,11.23,0,0,0-2.4-3.68c-.6-.7-1.15-.37-1.54,1.91v-.4l0-.09c0,.08,0,.16,0,.25a9.08,9.08,0,0,1-.19,1.67c-.41.53-.75-2.34-1.09-3.92a25.83,25.83,0,0,1-.26-5.11h.05c0-.1,0-.2-.05-.31h0v.3c-.46-1.81-1-1.64-1.34-6-.08-1.1-.25-1.6-.39-1.41-.76,1.07-1.69-.25-2.35,2.55-.37,1.54-.91,1.63-1.37,2.38.05,2.95.5,2.35.69,4s.43,3.65.66,5.37c.32,2.37.72,4.53,1.11,5,1.4,1.74,2.8,6.55,4.2,9.58a.12.12,0,0,0,.11.09c-.12-.88-.23-1.76-.34-2.67.24-1.94.59-2.61,1.06-2,1,1.2,1.95,2.16,2.93,3.42.79,1,1.54,1.48,2.2.2a6.23,6.23,0,0,0,.67,2.91l1,1.25c-.08-.44-.16-.86-.24-1.28l.23,1.19c.29.3.58.09.85,1,.64,2.21,1.18,3.59,1.4-.8,0-.28.2-.25.23,0,.57,4.2,1,.89,1.56,2.88l0,0c.09.72.17,1.43.26,2.15v-.15c-.07-.63-.15-1.26-.22-1.89l.4.85-.18,1v.15l.24-1.08,0-.19c1.17,3.39,2.29,4.75,3.38,4.44.45-.12.88,0,1.45,2.4s1.17,2.25,1.71,1.69c.86-.88,1.78.15,2.73,1.45s1.9,2.86,2.78,2.3c.23-.14.48-.36.72.24,1.25,3.16,2.31,1.48,3.49,2.71.1.11.2.14.28,0,.9-1.8,2-.05,3,.9a4.87,4.87,0,0,0,2.17,1c2,.63,3.9.45,5.93,2.49a1,1,0,0,0,1.28.24c.79-.44,1.6-.33,2.46,1.25.44.79.79.48,1.09-.49.53-1.76,1.13-1.35,1.82.87.42,1.37.78,1.54,1.16,1.37a1.73,1.73,0,0,1,1.56.11c.95.47,2,3.25,2.72-.59C247.63,1002.82,248.32,1001.56,249.08,1002Zm-54.32-32.36s0-.48,0-.48l0,.52Zm2-7.69a2.9,2.9,0,0,1-.1-.42l.16.36S196.73,962,196.71,962Zm.26,1.27a8.65,8.65,0,0,1-.09-.88c0,.13,0,.26.06.36C197.08,963.26,197.09,963.58,197,963.22Zm2.51,5.14c-.06.2-.17.14-.24-.13a3.86,3.86,0,0,1-.06-1.46c0-.19.16,0,.24.09A4.39,4.39,0,0,1,199.48,968.36Zm.92,1.28c-.06-.24-.1-1.1-.14-1.67.08,0,.19-.15.24.16.17,1,.31,2.11.46,3.19C200.77,970.79,200.58,970.32,200.4,969.64Zm3.06-4.16c.56-2,1.19-1.22,1.89,2.19C204.81,970.19,204.21,970.13,203.46,965.48Zm5.66,11c-.9-2.14-1.79-4-2.66-4.35-.4-.18-.75-1.79-1-4.29.86-.81,1.8.49,2.74,2.69s1.8,3.71,2.68,4c.38.13.76,1,1.09,3.53C211,977.88,210.13,978.85,209.12,976.47Zm3.37,2.73c.2-3.41.67-1.81,1.15-.07C213.31,980.07,212.93,980.22,212.49,979.2Zm2.32,2.25s-.08-.31-.12-.48a6.76,6.76,0,0,1,0-.68c0-.11.09-.12.11,0A2,2,0,0,1,214.81,981.45Zm1.26,1.74a6,6,0,0,1-.24-1.27c-.05-1.25.1-1.42.25-1,.06.16.12,1,.18,1.6C216.26,983.23,216.19,983.56,216.07,983.19Zm2.22,1.71c-.34.15-.68.6-1.24-1.13.35-1.95.66-2.48,1.07-1.54a5.5,5.5,0,0,1,.25,1.33A5.13,5.13,0,0,1,218.29,984.9Zm8,4.56v0Zm2.14-.27s-.08-.26-.12-.42l0-.58c0,.15.07.3.11.45A4.81,4.81,0,0,1,228.45,989.19Zm3.17,2.77v-.63l0,.87A2.14,2.14,0,0,1,231.62,992Zm2-3.27a.69.69,0,0,1,.07.13c0,.09,0,.4.06.61C233.7,989.18,233.65,988.93,233.61,988.69Zm3.21,3.1c0,.14-.07.08-.11.11,0-.25-.08-.54-.08-.72,0-.76.07-.81.17-.13A6.21,6.21,0,0,1,236.82,991.79Zm1.75,1.27c-.18,0-.42.13-.55-1.21-.16-1.82.09-2,.26-2a1.61,1.61,0,0,1,.94.37C239.08,991.86,238.89,993,238.57,993.06Zm.78-1.32c0-.32-.07-.93-.1-1.47h0c0,.29,0,.64.07.85C239.44,991.92,239.44,992.24,239.35,991.74Zm6,3.51c0,.09-.07.28-.11.25-.48-.31-.94-.62-1.4-.34-.89.55-1.9-.74-2.87-1.36a6.09,6.09,0,0,1-.22-1.37,5,5,0,0,1,.1-1.4,3.93,3.93,0,0,1,1.64-.71,3.45,3.45,0,0,1,2,.38,6.74,6.74,0,0,1,.73,2,15.54,15.54,0,0,1,.17,1.77A4.59,4.59,0,0,1,245.38,995.25Zm1-1c-.23-.07-.39-1-.46-2.46a4,4,0,0,1,.1-1.25c.21-.1.39.78.45,2.35A12.26,12.26,0,0,1,246.39,994.25Z"
    transform="translate(-188.35 -879.46)"></path>
  <path class="cls-1" d="M200.09,937.24v.29h0Z" transform="translate(-188.35 -879.46)"></path>
  <path class="cls-1" d="M195.15,972.58v.24c.18.35.35.7.52,1v-.3l-.51-1h0l0,.3Z" transform="translate(-188.35 -879.46)">
  </path>
  <path class="cls-1"
    d="M241.53,1023.38h0l0-.29h0v.35a6.54,6.54,0,0,0-.72-2.63c-2.2-1.93-4.4-3.59-6.62-5.84-2.7-2.75-5.29-2.78-8-5-.93-.75-1.8-.14-2.71-.73-1.16-.75-2.27-.17-3.48-2.17a1.91,1.91,0,0,0-1.6-1.14,25.36,25.36,0,0,1-5.13-1c-.38-.1-.78-.87-1.17-1.34.37,3.23.8,5.34,1.34,5.69,1.41.91,2.89,4.19,4.31,5.06.63.38,1.28,1.19,1.9,1.38.24.07.49.26.72.06.49-.46,1,3.8,1.47,3.13s.79-.81,1.25-.39c1.08,1,2.15,1.68,3.22,2.52,1.76,1.37,3.55,3.71,5.29,4.39,2.12.84,4.26,2.28,6.39,3.18a8.2,8.2,0,0,0,3.27.38c.18,0,.32-.74.48-1.14h0l0,.26v-.26h0C241.68,1026.36,241.6,1024.87,241.53,1023.38Z"
    transform="translate(-188.35 -879.46)"></path>
  <path class="cls-1" d="M212.09,1003.53s0-.14,0-.1v.14l0,0,0-.21Z" transform="translate(-188.35 -879.46)"></path>
  <path class="cls-1"
    d="M340.56,1009.5c-.56.77-1.19.58-1.75,1.19-1.46,1.58-3.07.72-4.53,2.13-.84.81-1.57,3.06-2.49,2.78-.66-.2-1.25,1.31-2-1.49-.09-.33-.26-.61-.28-.35-.3,3.84-1.08,1.59-1.61,2.44a18,18,0,0,1-1.69,2.26c-.61.72-1.24,1.28-1.85,2a6.22,6.22,0,0,0-.07,1.47,8.15,8.15,0,0,0,.22,1.57c.58.48,1.18,1.09,1.74,1.12a4.51,4.51,0,0,0,3.08-.55c.65-.46,1.39,1.62,2,1s1.05-2.41,1.64-2.87c2-1.54,4-2.1,6.16-.35.93.75,1.66-.46,2.35-3.55a10.09,10.09,0,0,0,.28-4.45C341.52,1010.78,341.07,1008.82,340.56,1009.5Z"
    transform="translate(-188.35 -879.46)"></path>
  <path class="cls-1"
    d="M270.34,1019.13c-.65,1.35-1.42-.65-2.12-.74s-1.39.38-2.1.3c-.47-.06-1-.79-1.45-1-1.23-.45-2.46-.71-3.69-1.15-.76-.27-1.56-1.53-2.28-.73a5.06,5.06,0,0,0-1,2.72,9.1,9.1,0,0,1,2.9,3.69c.54,1.09,1.09,1.18,1.6,1.1s1.14.3,1.74,1.05,1.05,2.63,1.46,2.22a5.41,5.41,0,0,0,1.3-1.43c.87-1.62,1.94,1.32,2.85.69.08-.06.19.43.29.66.24.55.51,2.71.71,1.6a38.61,38.61,0,0,0,.42-3.93C271.09,1022.37,270.62,1018.55,270.34,1019.13Z"
    transform="translate(-188.35 -879.46)"></path>
  <path class="cls-1"
    d="M259.57,1028.7c-1,.53-2.17-2.17-3.19-1.78-.3.12-.91-2.55-.79,2.12,0,.25-.14.61-.22.42-1.62-3.91-3-2-4.46-2.2-.52-.08-1,0-1.6-1.31-.32-.74-.61-1-.84-.12-.46,1.74-1.34-1.84-1.62,2.23.71,2.79,1.06,3.86,1.68,4.22,1.35.78,2.74,2.61,4,1.37,1.06-1,2.23-.52,3.38-.17.5.15,1.09,2.27,1.41-.68.07-.65.36-.3.55,0,.9,1.41,1.54-.15,2.09-3.07C259.84,1029.31,259.68,1028.64,259.57,1028.7Z"
    transform="translate(-188.35 -879.46)"></path>
  <path class="cls-1"
    d="M278.81,1019.34c-.5-2.7-1-3.21-1.4-2.09-1,2.84-2.3,1.6-3.51,1.28-.43-.11-.88-.72-1.21.54a9.08,9.08,0,0,0,0,2.69,8.65,8.65,0,0,0,.24,1.23c.29.61.61,1.4.88,1.42a3.35,3.35,0,0,1,2.31,1.23c.28.31.6.42.82-.25.37-1.18.77-.9,1.24.34.33.88.56.1.8-.41a5.27,5.27,0,0,0,.25-2.52A29.81,29.81,0,0,0,278.81,1019.34Z"
    transform="translate(-188.35 -879.46)"></path>
  <path class="cls-1"
    d="M305.64,968.33a1.37,1.37,0,0,0-1.37.51c-.64.78-1.18,3.3-2,1.41s-1.28,1.94-2,.63l0-.18c-.73-.08-1,3.61-1.5,5.7a3.53,3.53,0,0,1,.68.59c.88,1.13,1.7,2.17,2.45-.14.61-1.91,1.49-1.62,2.29-1.48s1.39-1.44,1.89-4.25C306,969.78,305.86,968.35,305.64,968.33Z"
    transform="translate(-188.35 -879.46)"></path>
  <path class="cls-1" d="M306.07,971.34v-.29s0,.05,0,.07S306.07,971.27,306.07,971.34Z"
    transform="translate(-188.35 -879.46)"></path>
  <path class="cls-1"
    d="M260.76,977.71c.24,0,.47-.24.71.07,1.42,1.82,2.6-.63,3.92-.45.13,0,.26-.42.34-1a8.83,8.83,0,0,0-.12-2.54c-.25-1.21-.53-1.82-.71-1-.44,2.15-1,1.59-1.63,0-.24-.61-.49-.48-.72-.58-1.69-.66-3.18,2-4.81,2.24-.26,0-.19,2-.2,3.41Z"
    transform="translate(-188.35 -879.46)"></path>
  <path class="cls-1"
    d="M216.69,965.6l.1.17h-.11l1.18,1.12c.39,1.37.76,2.63,1.15,2.06a6.79,6.79,0,0,1,1.59-1.45c0-1.42-.22-2.11-.34-2.11-1.23,0-2.55-3.26-3.82-4.68a16.56,16.56,0,0,1-1.64-2.38c-.46-.76-.83-.31-1.13,1.12.42,3.67,1,5.08,1.48,5.55A3.74,3.74,0,0,0,216.69,965.6Z"
    transform="translate(-188.35 -879.46)"></path>
  <path class="cls-1" d="M257.56,1001.59h-.05c0,.12,0,.24.05.36Z" transform="translate(-188.35 -879.46)"></path>
  <path class="cls-1"
    d="M251.82,999.55a12.38,12.38,0,0,0,.84,3.54l0,.28c.09-.37.17-.74.26-1.11h0l0-.2c.77.41,1.56,1.13,2.11-1.75.06-.3.2-.54.25-.28.91,5.42,1.39-.22,2.16,1.48,0,.07.06.07.09.07-.62-4-1.26-5-1.95-5.33s-1.16,1.33-1.86-2.07c-.07-.35-.23-.5-.27-.21-.38,2.87-1,2.57-1.61,2.36A9.66,9.66,0,0,0,251.82,999.55Z"
    transform="translate(-188.35 -879.46)"></path>
  <path class="cls-1"
    d="M296.47,973.25c-.1-.19-.2-.26-.29-.27-.29,0-.53.51-.67,1.95a1.12,1.12,0,0,0,.05.13l-1.3,0v-.25c-.09.36-.18.73-.26,1.1h0l0,.18-1.92-.63c.45,4.43.9,7.14,1.56,7,.23,0,.52.52.69,0,.71-2.37,1.48-3.83,2.37-4,.2,0,.2-1.64.11-3.09A7.05,7.05,0,0,0,296.47,973.25Z"
    transform="translate(-188.35 -879.46)"></path>
  <path class="cls-1" d="M211.05,958.85v-.05h0a.52.52,0,0,0,0,.11Z" transform="translate(-188.35 -879.46)"></path>
  <path class="cls-1"
    d="M211,958.8a21.22,21.22,0,0,0-.49-2.88c-1.39-2.51-2.78-4.81-4.18-7.07-.12-.21-.24.1-.36.23a14.11,14.11,0,0,0,.94,3.86C208.31,955.43,209.69,958.18,211,958.8Z"
    transform="translate(-188.35 -879.46)"></path>
  <path class="cls-1"
    d="M243.58,1024.6c-.8-2.82-1.46-3-2.05-1.22.07,1.49.15,3,.23,4.47,1,1.54,2,1.92,3,1.63a1.93,1.93,0,0,0,.16-1,4,4,0,0,0-.31-1.94A6.25,6.25,0,0,1,243.58,1024.6Z"
    transform="translate(-188.35 -879.46)"></path>
  <path class="cls-1"
    d="M277.75,974.27c.43.28.79-1.21.72-2.48-.12-2-1.06-5.79-1.35-5.22a16.44,16.44,0,0,0-.64,2.17,8.36,8.36,0,0,0-.22,1,10.42,10.42,0,0,0,0,1.51,6.86,6.86,0,0,0,.22,1.49A6.27,6.27,0,0,0,277.75,974.27Z"
    transform="translate(-188.35 -879.46)"></path>
  <path class="cls-1"
    d="M290.94,977.28l-1.09-.46c-.24-.1-.44.09-.5,1.71,0,0,0,.54,0,.54l0-.81c0,1.1-.13,2.11-.14,3.32,0,1.81.29,3.81.5,3.3a10.81,10.81,0,0,0,1.53-5.62c-.11-.64-.21-1.28-.32-1.92Z"
    transform="translate(-188.35 -879.46)"></path>
  <path class="cls-1" d="M291.25,979.36V979a2.28,2.28,0,0,0,0,.26Z" transform="translate(-188.35 -879.46)"></path>
  <path class="cls-1"
    d="M335.21,1000c.34-.91.71-1.63,1-2.69a11.87,11.87,0,0,0,.07-2.29,6.55,6.55,0,0,0-.36-1.9c-.65.39-1.36.19-1.65,4.23C334.83,1001,334.83,1000.93,335.21,1000Z"
    transform="translate(-188.35 -879.46)"></path>
  <path class="cls-1" d="M334.29,997.18v.36c0-.08,0-.15,0-.23Z" transform="translate(-188.35 -879.46)"></path>
  <path class="cls-1"
    d="M271.73,972.45a13.84,13.84,0,0,0,.49,2.87c.57,1.36,1.09,1.59,1.29-1.89,0-.76.07-1.57.15-3.24-.69-.24-1.25-1.17-1.7-.08A4,4,0,0,0,271.73,972.45Z"
    transform="translate(-188.35 -879.46)"></path>
  <path class="cls-1"
    d="M286,1018.34c-.39-.6-.77-1-1.07.13,1.19,4.59,2.24,5.71,3.15,2.25a6.91,6.91,0,0,0-.73-2.79C286.93,1019,286.49,1019.13,286,1018.34Z"
    transform="translate(-188.35 -879.46)"></path>
  <path class="cls-1"
    d="M311.29,1006.85c-.49,0-.8,1.72-1.11,3.38.33,1.08.65,2.28,1,3.16s.62-.47.63-2.9C311.8,1008.82,311.52,1006.84,311.29,1006.85Z"
    transform="translate(-188.35 -879.46)"></path>
  <path class="cls-1" d="M195.66,973.57v.3a.37.37,0,0,1,0-.09Z" transform="translate(-188.35 -879.46)"></path>
  <path class="cls-1"
    d="M198,978.16c-.85-2.33-1.42-4.3-2-5.44-.1-.2-.2.61-.29,1.06a23,23,0,0,0,.29,2.4C196.57,977.82,197.17,979.16,198,978.16Z"
    transform="translate(-188.35 -879.46)"></path>
  <path class="cls-1"
    d="M328,1000.72a3,3,0,0,0-.05.76c0,.28.05.62.08.93s.21.77.3.79a5.27,5.27,0,0,0,1,0c.21,0,.58,1.14.45-1.53-.08-1.48-.35-1.6-.54-1.66C328.75,999.85,328.31,999.63,328,1000.72Z"
    transform="translate(-188.35 -879.46)"></path>
  <path class="cls-1"
    d="M249.53,990.84a9.93,9.93,0,0,0,0-1.66c-.19-2.29-.62-3.63-.89-2.77a8.93,8.93,0,0,0,0,2.48C248.86,990.83,249.33,991.91,249.53,990.84Z"
    transform="translate(-188.35 -879.46)"></path>
  <path class="cls-1"
    d="M203.24,943.55a13.39,13.39,0,0,1-1.44-2c-.37-.7-.74-1.82-1.12-2.78C201.68,945.65,201.79,945.8,203.24,943.55Z"
    transform="translate(-188.35 -879.46)"></path>
  <path class="cls-1" d="M200.62,938.34a2.26,2.26,0,0,0,0,.26l.06.18Z" transform="translate(-188.35 -879.46)"></path>
  <path class="cls-1"
    d="M293.24,946.25a4.18,4.18,0,0,0,.24,1.22c.08.08.16-.29.21-.69a18.68,18.68,0,0,0-.08-4.38c-.26-1.89-.54-3.62-.81-5.4l-.21.87C292.92,940.49,293.08,943.36,293.24,946.25Z"
    transform="translate(-188.35 -879.46)"></path>
  <path class="cls-1" d="M200.49,983.32c0,.11,0,.21,0,.33v0c0-.07,0-.14.05-.21l-.05-.06Z"
    transform="translate(-188.35 -879.46)"></path>
  <path class="cls-1"
    d="M199,978.72a2.73,2.73,0,0,0-.13,1.11,7.56,7.56,0,0,0,.19,1.52,2.55,2.55,0,0,0,.43.91c.33.41.65.72,1,1.06C200.06,979.69,199.55,978.82,199,978.72Z"
    transform="translate(-188.35 -879.46)"></path>
  <path class="cls-1"
    d="M262.82,1002.26a5.34,5.34,0,0,0,0-.89c-.17-1.44-1-2.14-1.44-1.1,0,0,.08,1.08.13,1.71a.57.57,0,0,0,.24.13C262.1,1002.13,262.56,1004.19,262.82,1002.26Z"
    transform="translate(-188.35 -879.46)"></path>
  <path class="cls-1"
    d="M244.69,976.69c0-.53,0-1,0-1.59a2.56,2.56,0,0,0-.13-.67,4.88,4.88,0,0,0-1-.83c-.07,0-.18.39-.17.81a5.35,5.35,0,0,0,.3,2.14C244.07,977.12,244.41,977.52,244.69,976.69Z"
    transform="translate(-188.35 -879.46)"></path>
  <path class="cls-1"
    d="M319.36,1050a4.8,4.8,0,0,0,0,.81,4.88,4.88,0,0,0,.1.84c.45.82.84.52,1.34-.61C320.13,1049.23,319.71,1048.76,319.36,1050Z"
    transform="translate(-188.35 -879.46)"></path>
  <path class="cls-1"
    d="M250.22,986.61a9.09,9.09,0,0,0,0,2.56c.23,1.83.68,2.24.75.7,0-.42-.05-1.24-.08-1.9C250.67,986.6,250.43,985.83,250.22,986.61Z"
    transform="translate(-188.35 -879.46)"></path>
  <path class="cls-1"
    d="M335.91,1035.87c-.34-.88-.5.39-.69,1.32a5,5,0,0,0,0,.77,4.39,4.39,0,0,0,.24,1.12c.22.05.44-.15.63-.23a16.51,16.51,0,0,0,.07-1.68A5.3,5.3,0,0,0,335.91,1035.87Z"
    transform="translate(-188.35 -879.46)"></path>
  <path class="cls-1"
    d="M289.68,993.58c-.09-.21-.21-.27-.26,0a11.84,11.84,0,0,0,.06,2.69c.19,1.57.41,2.74.66,2.46a8.55,8.55,0,0,0,.06-2.42A9.56,9.56,0,0,0,289.68,993.58Z"
    transform="translate(-188.35 -879.46)"></path>
  <path class="cls-1"
    d="M306,957.15c0,.34,0,1.18.06,1.79.3,2.22.74,2.44.81.35a10.89,10.89,0,0,0-.11-1.75C306.55,956.12,306.15,955.91,306,957.15Z"
    transform="translate(-188.35 -879.46)"></path>
  <path class="cls-1"
    d="M195.2,955.6c-.18-3.72-.22-4-.7-4.45a1,1,0,0,0-.64-.19,41.4,41.4,0,0,0,1.48,7.1C195.29,957.24,195.23,956.42,195.2,955.6Z"
    transform="translate(-188.35 -879.46)"></path>
  <path class="cls-1"
    d="M241.92,976.56c0-.64,0-1.43-.09-1.73-.22-1.3-.48-2-.72-2-.07,0-.16.49-.16,1a14.59,14.59,0,0,0,.14,1.79C241.4,977.43,241.66,976.87,241.92,976.56Z"
    transform="translate(-188.35 -879.46)"></path>
  <path class="cls-1"
    d="M259.78,1000.7c0,.19,0,.61,0,.92a5,5,0,0,0,.26,1c.18,0,.36-.2.53-.39a3.08,3.08,0,0,0,.05-1.4,3.89,3.89,0,0,0-.12-.74C260.2,999.23,259.93,999.14,259.78,1000.7Z"
    transform="translate(-188.35 -879.46)"></path>
  <path class="cls-1"
    d="M311,966.91c.25,1,.36-.09.5-.45.32-.77.31-1.25-.05-3.29-.17-.93-.35-1.74-.51-2.59C311.06,962.83,310.83,964.47,311,966.91Z"
    transform="translate(-188.35 -879.46)"></path>
  <path class="cls-1"
    d="M295.09,951.1a3.94,3.94,0,0,0,.19-.84c-.07-.45-.14-1.14-.2-1.33-.24-.65-.49-1.42-.68-.71,0,.14,0,1,0,1.54C294.65,951,294.88,951.4,295.09,951.1Z"
    transform="translate(-188.35 -879.46)"></path>
  <path class="cls-1" d="M340.81,994.87l0,0,0-.17Z" transform="translate(-188.35 -879.46)"></path>
  <path class="cls-1"
    d="M341.92,997.47a4.39,4.39,0,0,0-.39-1.87,4.72,4.72,0,0,0-.7-.71c.2,1.21.4,2.53.61,3.55s.39,1.07.49-.08A6.73,6.73,0,0,0,341.92,997.47Z"
    transform="translate(-188.35 -879.46)"></path>
  <path class="cls-1"
    d="M210.66,1001.92v0c.25,2.65.55,4.77,1,4.86s.39-1.41.42-3.2C211.68,1005.55,211.13,1002.32,210.66,1001.92Z"
    transform="translate(-188.35 -879.46)"></path>
  <path class="cls-1"
    d="M250.82,974c-.26-.22-.45.16-.29,2.36.11,1.5.31,1.92.48,1.37a10,10,0,0,0-.08-3.72l0-.09S250.87,974.05,250.82,974Z"
    transform="translate(-188.35 -879.46)"></path>
  <path class="cls-1"
    d="M307,968.89c-.28.16-.36,1.7-.43,3.23.31.66.55.3.78-.36a5,5,0,0,0,.05-2.06C307.33,969.1,307.14,968.83,307,968.89Z"
    transform="translate(-188.35 -879.46)"></path>
  <path class="cls-1" d="M306.58,972.38v-.26a0,0,0,0,0,0,0Z" transform="translate(-188.35 -879.46)"></path>
  <path class="cls-1"
    d="M271.56,1020.77a23.19,23.19,0,0,0,.49,4.27c.05.16.12-.46.19-.74a20.13,20.13,0,0,0-.51-4.15C271.62,1019.68,271.52,1020,271.56,1020.77Z"
    transform="translate(-188.35 -879.46)"></path>
  <path class="cls-1" d="M248.11,976.36v-.42s0,.47,0,.53v0h0Z" transform="translate(-188.35 -879.46)"></path>
  <path class="cls-1"
    d="M248.08,976.49a18.74,18.74,0,0,0-.56-2.06c-.16-.37-.45-1.37-.37.76a9.4,9.4,0,0,0,.37,2C247.79,978.1,247.93,977.16,248.08,976.49Z"
    transform="translate(-188.35 -879.46)"></path>
  <path class="cls-1"
    d="M299.66,949.09a5.86,5.86,0,0,0,.07-.74,13.2,13.2,0,0,0-.18-1.52c-.14-.33-.29-.47-.42-.38a4,4,0,0,0-.1,1.19,5.38,5.38,0,0,0,.24,1.33C299.41,949.2,299.54,949.07,299.66,949.09Z"
    transform="translate(-188.35 -879.46)"></path>
  <path class="cls-1"
    d="M333.34,995.17a6.37,6.37,0,0,0-.08,1.35,3,3,0,0,0,.25,1.1,1.86,1.86,0,0,0,.73-.41c-.18-1.21-.35-2.42-.53-3.63l0-.11C333.6,994,333.46,994.52,333.34,995.17Z"
    transform="translate(-188.35 -879.46)"></path>
  <path class="cls-1" d="M334.29,997.18l-.05,0,.05.33Z" transform="translate(-188.35 -879.46)"></path>
  <path class="cls-1" d="M253.48,975.76c.39.09.85,1.34,1.19-.27C254.06,972.82,253.7,973.12,253.48,975.76Z"
    transform="translate(-188.35 -879.46)"></path>
  <path class="cls-1"
    d="M301.49,947.18c.22-.22.66,1.72.6-1.21a13,13,0,0,0-.65-2.13c-.16,1-.31,2-.47,3.06C301.15,947.05,301.33,947.33,301.49,947.18Z"
    transform="translate(-188.35 -879.46)"></path>
  <path class="cls-1"
    d="M204.69,948.85l0-1.66c-.14-.13-.28-.4-.4-.31a7.4,7.4,0,0,0,0,1.39C204.4,949.71,204.56,949.6,204.69,948.85Z"
    transform="translate(-188.35 -879.46)"></path>
  <path class="cls-1"
    d="M308.67,969.18c-.16,0-.42-1.49-.46.24a11.83,11.83,0,0,0,.18,1.72c.22,1.13.4,1.11.5,0,0-.44,0-1.14.05-1.72l0-.11A2.09,2.09,0,0,0,308.67,969.18Z"
    transform="translate(-188.35 -879.46)"></path>
  <path class="cls-1"
    d="M233.89,973.3c-.06-.55-.11-1.37-.18-1.6-.16-.52-.29-.33-.26.89a4.85,4.85,0,0,0,.24,1.25C233.76,974,233.82,973.5,233.89,973.3Z"
    transform="translate(-188.35 -879.46)"></path>
  <path class="cls-1"
    d="M254.35,990.66c.05.74.14,1.14.24,1s.39,0,.37-1.64a3.74,3.74,0,0,0-.25-1.1C254.51,988.75,254.39,989.4,254.35,990.66Z"
    transform="translate(-188.35 -879.46)"></path>
  <path class="cls-1"
    d="M279.7,967.9a1.88,1.88,0,0,0-.14.89,8.19,8.19,0,0,0,.18,1.47c.24.84.42.48.6,0C280.14,969,279.94,967.92,279.7,967.9Z"
    transform="translate(-188.35 -879.46)"></path>
  <path class="cls-1" d="M280.34,970.22l0,.2v0h0v-.31Z" transform="translate(-188.35 -879.46)"></path>
  <path class="cls-1"
    d="M330.66,997.74a11.5,11.5,0,0,0-.19,1.79l0,0,.27,2.26h0l0-.19c.09,0,.18,0,.26-.07a3.71,3.71,0,0,0,.17-1.86C331.05,998.13,330.84,997.47,330.66,997.74Z"
    transform="translate(-188.35 -879.46)"></path>
  <path class="cls-1" d="M283.32,1019.8l-1,4.7C283.18,1025.22,283.21,1022.25,283.32,1019.8Z"
    transform="translate(-188.35 -879.46)"></path>
  <path class="cls-1"
    d="M273.59,1043.29a8.33,8.33,0,0,0,.1,2.66c.11.52.26.81.33,0a9.34,9.34,0,0,0-.18-2.55C273.77,1043.06,273.63,1043,273.59,1043.29Z"
    transform="translate(-188.35 -879.46)"></path>
  <path class="cls-1"
    d="M265.54,1001.86a21.25,21.25,0,0,0,.1,2.59c.12.8.27.64.36,0a11.19,11.19,0,0,0-.13-2.54C265.73,1001.19,265.57,1000.73,265.54,1001.86Z"
    transform="translate(-188.35 -879.46)"></path>
  <path class="cls-1" d="M292,995.11c0,.06,0,.12,0,.18l0,.1v0h0Z" transform="translate(-188.35 -879.46)"></path>
  <path class="cls-1"
    d="M291.32,993.6a12.51,12.51,0,0,0,.09,1.72c.19,1.38.35,1.34.48.44,0-.14,0-.31.05-.47s-.07-.44-.11-.64C291.66,993.73,291.47,992.61,291.32,993.6Z"
    transform="translate(-188.35 -879.46)"></path>
  <path class="cls-1"
    d="M310.16,968.57c0-.72-.07-1.35-.18-1.28a6.63,6.63,0,0,0-.14,1c.09.26.17.6.25.75S310.16,968.81,310.16,968.57Z"
    transform="translate(-188.35 -879.46)"></path>
  <path class="cls-1"
    d="M309.29,952.68c-.12,0-.15.54-.07,1.27.11,1,.25,1.36.43.66a5.77,5.77,0,0,0-.08-1.33C309.49,952.89,309.38,952.72,309.29,952.68Z"
    transform="translate(-188.35 -879.46)"></path>
  <path class="cls-1" d="M246.11,962.14c0,.08,0,.14,0,.2l0-.14,0,0,0,0,0-.23,0,.17Z"
    transform="translate(-188.35 -879.46)"></path>
  <path class="cls-1" d="M247,964.65c-.26-1.92-.56-1.08-.83-2.31,0,.24-.11.48-.16.72C246.48,965,246.5,965,247,964.65Z"
    transform="translate(-188.35 -879.46)"></path>
  <path class="cls-1"
    d="M221.68,968a4.25,4.25,0,0,0,0-1.51c-.08-.36-.2-.43-.28-.32a3.17,3.17,0,0,0,0,1.42C221.47,967.91,221.58,967.83,221.68,968Z"
    transform="translate(-188.35 -879.46)"></path>
  <path class="cls-1"
    d="M254.79,965.73c.09,0,.15-.32.23-.48-.07-.47-.12-1.16-.19-1.36a10.73,10.73,0,0,0-.53-1.24C254.41,964.11,254.48,965.9,254.79,965.73Z"
    transform="translate(-188.35 -879.46)"></path>
  <path class="cls-1" d="M254.3,962.65v-.07h0Z" transform="translate(-188.35 -879.46)"></path>
  <path class="cls-1" d="M258.51,963.57v0a.51.51,0,0,0,0,.13v0Z" transform="translate(-188.35 -879.46)"></path>
  <path class="cls-1"
    d="M259,965.31a1,1,0,0,0,.08-.45c0-.54-.08-1.33-.14-1.56-.2-.74-.34-.25-.47.27C258.68,964.5,258.85,965.42,259,965.31Z"
    transform="translate(-188.35 -879.46)"></path>
  <path class="cls-1"
    d="M340.3,998.13a3.82,3.82,0,0,0,.11.69c.17.47.27,0,.31-.71,0-1,.06-2.1.08-3.22-.13.41-.27.84-.41,1.22A5.43,5.43,0,0,0,340.3,998.13Z"
    transform="translate(-188.35 -879.46)"></path>
  <path class="cls-1" d="M340.81,994.77v.1S340.8,994.72,340.81,994.77Z" transform="translate(-188.35 -879.46)"></path>
  <path class="cls-1"
    d="M258.18,1002.59a6.13,6.13,0,0,0-.23-1.13c-.12,0-.22.2-.33.38.13.51.25,1.06.37,1.37C258.06,1003.37,258.12,1002.82,258.18,1002.59Z"
    transform="translate(-188.35 -879.46)"></path>
  <path class="cls-1" d="M257.62,1001.84l-.06-.25v.35Z" transform="translate(-188.35 -879.46)"></path>
  <path class="cls-1"
    d="M270.37,973.11l.24,1c0-.48,0-1,0-1.46a1.55,1.55,0,0,0-.12-.46C270.37,972,270.33,972.33,270.37,973.11Z"
    transform="translate(-188.35 -879.46)"></path>
  <path class="cls-1"
    d="M245.66,975.31s0,.87,0,1.34c.09.2.2.6.27.55a4.39,4.39,0,0,0,.3-2C246,975.23,245.83,975.15,245.66,975.31Z"
    transform="translate(-188.35 -879.46)"></path>
  <path class="cls-1" d="M284.45,967.85l0-.52s0,.48,0,.51v0h0l0,.22c0-.11.05-.18.08-.27Z"
    transform="translate(-188.35 -879.46)"></path>
  <path class="cls-1" d="M285.17,967.14c.17-.78-.23-.8-.63.67C284.77,967.72,285,967.83,285.17,967.14Z"
    transform="translate(-188.35 -879.46)"></path>
  <path class="cls-1"
    d="M287.93,954.49a3.35,3.35,0,0,0,0-.72c-.11-.93-.24-1.32-.38-1s0,.59,0,.74C287.67,954.49,287.81,954.89,287.93,954.49Z"
    transform="translate(-188.35 -879.46)"></path>
  <path class="cls-1"
    d="M304.65,955.48c0-.17-.12-.22-.12-.15,0,.51,0,1.47,0,1.54a9.42,9.42,0,0,0,.41,1l0,.09C304.86,957.15,304.76,956.29,304.65,955.48Z"
    transform="translate(-188.35 -879.46)"></path>
  <path class="cls-1"
    d="M321.79,1004.7a3,3,0,0,0,0,1.37c.06.32.16.21.24.29a4.26,4.26,0,0,0-.09-1.54C321.88,1004.67,321.82,1004.63,321.79,1004.7Z"
    transform="translate(-188.35 -879.46)"></path>
  <path class="cls-1" d="M325.1,994.32l-.06.19a.86.86,0,0,0,.07.1v0h0Z" transform="translate(-188.35 -879.46)"></path>
  <path class="cls-1"
    d="M324.46,994.37c0,.75.1,1.47.2,1.31a6.18,6.18,0,0,0,.38-1.17,8.34,8.34,0,0,0-.5-.67S324.46,994.13,324.46,994.37Z"
    transform="translate(-188.35 -879.46)"></path>
  <path class="cls-1"
    d="M300.21,1021.55a3.48,3.48,0,0,0,0,.73c.13,1,.27,1.29.4,1s0-.62,0-.77C300.48,1021.44,300.34,1021.18,300.21,1021.55Z"
    transform="translate(-188.35 -879.46)"></path>
  <path class="cls-1"
    d="M296.66,949c0,.18,0,.5.06.76.11.54.18.5.19-.17a6.15,6.15,0,0,0-.07-.75C296.74,948.3,296.67,948.35,296.66,949Z"
    transform="translate(-188.35 -879.46)"></path>
  <path class="cls-1"
    d="M262.41,989.59s-.09.14-.09.34a3.55,3.55,0,0,0,.18,1.45,1.22,1.22,0,0,0,.08-.4A2.79,2.79,0,0,0,262.41,989.59Z"
    transform="translate(-188.35 -879.46)"></path>
  <path class="cls-1" d="M256.09,1014.91l0-.07v0l0,.14c0-.14,0-.27-.05-.41C256.1,1014.72,256.1,1014.81,256.09,1014.91Z"
    transform="translate(-188.35 -879.46)"></path>
  <path class="cls-1"
    d="M255.78,1017.08c.07-.1.17,0,.2-.33,0-.53.08-1.2.11-1.84a5.26,5.26,0,0,0-.28.87C255.77,1016,255.79,1016.64,255.78,1017.08Z"
    transform="translate(-188.35 -879.46)"></path>
  <path class="cls-1" d="M286.47,964.79h0c.16,1.51.34,2.82.56,3.92-.18-1.25-.36-2.5-.54-3.78,0,0,0-.09,0-.12v.07Z"
    transform="translate(-188.35 -879.46)"></path>
  <path class="cls-1"
    d="M286.13,964.25a4.91,4.91,0,0,0,0,.86c.18,1.11.22,0,.31-.32C286.35,964.13,286.23,963.38,286.13,964.25Z"
    transform="translate(-188.35 -879.46)"></path>
  <path class="cls-1"
    d="M338.16,996.62c-.07-.35-.14-.66-.21-1,0,.21,0,.58,0,.61.06.35.13.65.2,1C338.14,997,338.16,996.64,338.16,996.62Z"
    transform="translate(-188.35 -879.46)"></path>
  <path class="cls-1"
    d="M318.17,1051s.07.32.11.49c0-.42,0-.83.05-1.28,0,0-.07-.32-.11-.49C318.2,1050.12,318.18,1050.53,318.17,1051Z"
    transform="translate(-188.35 -879.46)"></path>
  <path class="cls-1"
    d="M317.44,1050.64c-.12-.23-.16.13-.15.9,0,.28.07.76.09.82.12.23.17-.12.14-.9A7,7,0,0,0,317.44,1050.64Z"
    transform="translate(-188.35 -879.46)"></path>
  <path class="cls-1"
    d="M268.28,976.28a2.53,2.53,0,0,0,.26.4c0-.3,0-.86,0-.88a2.23,2.23,0,0,0-.26-.41C268.26,975.7,268.27,976.26,268.28,976.28Z"
    transform="translate(-188.35 -879.46)"></path>
  <path class="cls-1"
    d="M269.78,974.45a3.55,3.55,0,0,0-.1-.73c-.14-.42-.18-.11-.08.76a2.1,2.1,0,0,0,.13.51A3.39,3.39,0,0,0,269.78,974.45Z"
    transform="translate(-188.35 -879.46)"></path>
  <path class="cls-1" d="M292.45,950.14l.06.07c0-.11-.05-.23-.07-.35s0-.06,0-.05a.06.06,0,0,0,0,0h0Z"
    transform="translate(-188.35 -879.46)"></path>
  <path class="cls-1"
    d="M293,951.17a1.82,1.82,0,0,0-.12-.52,3.19,3.19,0,0,0-.34-.44c.1.47.2.95.31,1.35S293,951.84,293,951.17Z"
    transform="translate(-188.35 -879.46)"></path>
  <path class="cls-1"
    d="M273.48,986.75a7.81,7.81,0,0,0-.13,1c.08,0,.19.29.24.08.08-.4.15-1,.22-1.54A1,1,0,0,0,273.48,986.75Z"
    transform="translate(-188.35 -879.46)"></path>
  <path class="cls-1" d="M273.83,986.16a1.11,1.11,0,0,0,0,.17l0,0,0,.62s0-.6,0-.62v0h0Z"
    transform="translate(-188.35 -879.46)"></path>
  <path class="cls-1"
    d="M256.43,1017.32c.07.45.23,1,.26.79a3.43,3.43,0,0,0-.14-1.37c-.14-.47-.26-1.09-.39-1.71C256.24,1015.82,256.33,1016.64,256.43,1017.32Z"
    transform="translate(-188.35 -879.46)"></path>
  <path class="cls-1"
    d="M302.73,958.3s-.07.21-.08.44a3.2,3.2,0,0,0,.15,1.44c0,.05.06-.27.08-.42A3.42,3.42,0,0,0,302.73,958.3Z"
    transform="translate(-188.35 -879.46)"></path>
  <polygon class="cls-1" points="94.77 88.31 94.85 88.28 94.78 87.81 94.77 88.31"></polygon>
  <polygon class="cls-1" points="50.09 95.26 50.13 96 50.19 95.57 50.09 95.26"></polygon>
  <polygon class="cls-1" points="49.05 84.32 49.12 84.78 49.13 84.28 49.05 84.32"></polygon>
  <path class="cls-1" d="M213.65,959.41v.15s0-.08,0-.12,0-.09,0-.14v0a2.25,2.25,0,0,0,0,.22h0Z"
    transform="translate(-188.35 -879.46)"></path>
  <path class="cls-1" d="M213.61,959.55c-.26-.12-.55-1.47-.79-.94C213.13,960.62,213.38,960.49,213.61,959.55Z"
    transform="translate(-188.35 -879.46)"></path>
  <polygon class="cls-1" points="118.46 68.54 118.54 69.04 118.54 68.52 118.46 68.54"></polygon>
  <polygon class="cls-1" points="118.92 76.78 119.03 77.17 118.98 76.43 118.92 76.78"></polygon>
  <polygon class="cls-1" points="98.33 75 98.46 75.16 98.37 74.41 98.33 75"></polygon>
  <path class="cls-1"
    d="M249.8,965.05c0-.13-.08,0-.11,0,0,.27,0,.53.05.79l.11-.05C249.84,965.54,249.82,965.15,249.8,965.05Z"
    transform="translate(-188.35 -879.46)"></path>
  <path class="cls-1" d="M252,975.66c0-.25.05-.55.08-.84l-.2.8S252,975.78,252,975.66Z"
    transform="translate(-188.35 -879.46)"></path>
  <path class="cls-1" d="M252.09,974.28c0,.17,0,.36,0,.54l.06-.29,0,.49s0-.49,0-.51v0h0Z"
    transform="translate(-188.35 -879.46)"></path>
  <path class="cls-1"
    d="M200.72,982.88a3.18,3.18,0,0,0-.14.54,1.86,1.86,0,0,0,.22.25s.12,0,.11-.08C200.9,983,200.82,982.65,200.72,982.88Z"
    transform="translate(-188.35 -879.46)"></path>
  <path class="cls-1"
    d="M329.41,986.27c-.12-.39-.17-.14-.12.69,0,0,.08,0,.12.08C329.41,986.77,329.42,986.28,329.41,986.27Z"
    transform="translate(-188.35 -879.46)"></path>
  <polygon class="cls-1" points="103.25 87.48 103.29 88 103.34 87.68 103.25 87.48"></polygon>
  <path class="cls-1"
    d="M257.16,991a3.8,3.8,0,0,0,0-.54c0-.15-.08-.44-.11-.43a3.75,3.75,0,0,0,0,.53C257.09,990.67,257.13,991,257.16,991Z"
    transform="translate(-188.35 -879.46)"></path>
  <polygon class="cls-1" points="78.41 94.04 78.46 94.72 78.52 94.3 78.41 94.04"></polygon>
  <path class="cls-1"
    d="M289.05,911.8c-.09-.17-.11.23,0,1,0,.4.08.8.13,1.19,0-.46,0-.92,0-1.38C289.09,912.36,289.07,911.83,289.05,911.8Z"
    transform="translate(-188.35 -879.46)"></path>
  <path class="cls-1" d="M271.92,1001.28a2.06,2.06,0,0,0-.17-.39L272,1002A5.52,5.52,0,0,0,271.92,1001.28Z"
    transform="translate(-188.35 -879.46)"></path>
  <path class="cls-1" d="M268,961.49a1.4,1.4,0,0,0,0,.23l0,0,0,0,0-.25Z" transform="translate(-188.35 -879.46)"></path>
  <path class="cls-1"
    d="M268.07,961.7c.07.5.14,1.06.21,1.36s.17.15.25.2a11.87,11.87,0,0,0-.2-1.27C268.25,961.75,268.16,961.76,268.07,961.7Z"
    transform="translate(-188.35 -879.46)"></path>
  <polygon class="cls-1" points="82.17 81.61 82.24 82.18 82.25 81.7 82.17 81.61"></polygon>
  <path class="cls-1" d="M326.2,991.79v.07s0,.07,0,.11v0l.08.15C326.25,992,326.22,991.88,326.2,991.79Z"
    transform="translate(-188.35 -879.46)"></path>
  <path class="cls-1" d="M326.56,992.57l-.29-.49c.07.25.13.5.2.69S326.53,992.64,326.56,992.57Z"
    transform="translate(-188.35 -879.46)"></path>
  <path class="cls-1" d="M325.82,1003.6h.06c0-.11,0-.2-.06-.29v0h0Z" transform="translate(-188.35 -879.46)"></path>
  <path class="cls-1"
    d="M326.19,1004.34a4.83,4.83,0,0,0-.1-.7.21.21,0,0,0-.21,0C326,1004.14,326.08,1004.81,326.19,1004.34Z"
    transform="translate(-188.35 -879.46)"></path>
  <path class="cls-1" d="M335.35,1026.07c0-.27,0-.74-.06-.78-.13-.28-.15,0-.06.82Z"
    transform="translate(-188.35 -879.46)"></path>
  <path class="cls-1" d="M210.67,1001.94v0l-.12,1.23C210.58,1002.75,210.62,1002.35,210.67,1001.94Z"
    transform="translate(-188.35 -879.46)"></path>
  <path class="cls-1" d="M211.05,958.8c.19-.72.38-1.48.57-2.24C211.35,956.57,211.16,957.25,211.05,958.8Z"
    transform="translate(-188.35 -879.46)"></path>
  <path class="cls-1" d="M237,973.1v0h0v-.3C237.1,973,236.82,972.84,237,973.1Z" transform="translate(-188.35 -879.46)">
  </path>
  <path class="cls-1" d="M251.49,965v0Z" transform="translate(-188.35 -879.46)"></path>
  <path class="cls-1" d="M251.52,965.21c.06-.47,0-.28,0-.2l0-.54s0,.49,0,.52v0h0Z"
    transform="translate(-188.35 -879.46)"></path>
  <path class="cls-1" d="M258.31,964.3c.15.62.13-.2.17-.61Z" transform="translate(-188.35 -879.46)"></path>
  <path class="cls-1" d="M268,961.72l-.21.45C268,963.1,268,962.24,268,961.72Z" transform="translate(-188.35 -879.46)">
  </path>
  <path class="cls-1" d="M274.83,968.55v0A0,0,0,0,0,274.83,968.55Z" transform="translate(-188.35 -879.46)"></path>
  <path class="cls-1" d="M274.8,968.38c0,.46,0,.28,0,.2l.05.55s0-.5,0-.53a.12.12,0,0,1,0-.05h0Z"
    transform="translate(-188.35 -879.46)"></path>
  <path class="cls-1" d="M283.49,1021.29l-.15-1.55h0v0C283.38,1020.26,283.44,1020.78,283.49,1021.29Z"
    transform="translate(-188.35 -879.46)"></path>
  <path class="cls-1"
    d="M279.38,956.31c.1.54.1.17,0-.69,0-.22-.06-.6-.08-1,0,0,0,0,0-.06h0l0-.14v.14C279.29,955.22,279.31,956,279.38,956.31Z"
    transform="translate(-188.35 -879.46)"></path>
  <path class="cls-1" d="M287.18,969.44v-.22s0,.1,0,.2c-.05-.22-.1-.46-.15-.71,0,.32.09.63.13.94Z"
    transform="translate(-188.35 -879.46)"></path>
  <path class="cls-1" d="M285.65,951.65c-.06-.39-.14-.73-.21-1.09l.25,1.79A6.64,6.64,0,0,0,285.65,951.65Z"
    transform="translate(-188.35 -879.46)"></path>
  <path class="cls-1" d="M298.7,976.32c0-.14,0-.26-.06-.38,0,.21,0,.42.07.64v0a1.16,1.16,0,0,1,0-.18l-.05,0Z"
    transform="translate(-188.35 -879.46)"></path>
  <path class="cls-1" d="M298.48,974.84c0,.37.11.73.16,1.1l-.15-1.63C298.49,974.49,298.47,974.75,298.48,974.84Z"
    transform="translate(-188.35 -879.46)"></path>
  <path class="cls-1" d="M297.58,948.09a0,0,0,0,0,.06,0l-.13-.31A1.48,1.48,0,0,0,297.58,948.09Z"
    transform="translate(-188.35 -879.46)"></path>
  <path class="cls-1" d="M305,958a.9.9,0,0,0,0-.13l.07.94C305,958.59,305,958.34,305,958Z"
    transform="translate(-188.35 -879.46)"></path>
  <path class="cls-1" d="M313.05,963.52c0,.43-.09.87-.13,1.3C313.19,965.51,313.14,964.64,313.05,963.52Z"
    transform="translate(-188.35 -879.46)"></path>
  <path class="cls-1" d="M313.05,963.52a2,2,0,0,1,0-.23l-.06-.13C313,963.28,313,963.4,313.05,963.52Z"
    transform="translate(-188.35 -879.46)"></path>
  <path class="cls-1" d="M326.18,992c-.07.24-.13.48-.2.73C326.17,993.52,326.13,992.42,326.18,992Z"
    transform="translate(-188.35 -879.46)"></path>
  <path class="cls-1" d="M316.14,885.62v.07c.07-.19.13-.38.19-.58Z" transform="translate(-188.35 -879.46)"></path>
  <path class="cls-1" d="M312.89,964.7s0-.22,0-.22v.26h0l0,.28v-.2a.41.41,0,0,0,0-.08Z"
    transform="translate(-188.35 -879.46)"></path>
  <path class="cls-1" d="M308.94,969.45l.11.06a1.29,1.29,0,0,0-.09-.16Z" transform="translate(-188.35 -879.46)"></path>
  <path class="cls-1" d="M306,941.34s0,.06,0,.06l.07,0,0-.12v.05Z" transform="translate(-188.35 -879.46)"></path>
  <path class="cls-1" d="M306.07,971.05v.29l.51,1v-.29Z" transform="translate(-188.35 -879.46)"></path>
  <path class="cls-1" d="M310.1,1009.54s0,.5,0,.52v0l0,.2v0l0-.06Z" transform="translate(-188.35 -879.46)"></path>
  <path class="cls-1" d="M300.9,946.58l0,.25v0S300.9,946.58,300.9,946.58Z" transform="translate(-188.35 -879.46)">
  </path>
  <path class="cls-1" d="M300.92,946.83v0h0l0,.29,0-.23-.05,0Z" transform="translate(-188.35 -879.46)"></path>
  <polygon class="cls-1" points="111.9 91.25 111.89 91.43 111.99 91.3 111.9 91.25"></polygon>
  <path class="cls-1" d="M297.72,948.82s0-.49,0-.52v0h0l0-.21-.05,0,.05.13Z" transform="translate(-188.35 -879.46)">
  </path>
  <path class="cls-1" d="M295.47,967.05l0,.52s0-.29,0-.33S295.47,967.05,295.47,967.05Z"
    transform="translate(-188.35 -879.46)"></path>
  <path class="cls-1"
    d="M289.09,922.3c-.13-.27-.26-.55-.38-.83.06.54.13,1.08.19,1.62C289,922.83,289,922.56,289.09,922.3Z"
    transform="translate(-188.35 -879.46)"></path>
  <path class="cls-1" d="M288,916h0l-.05-.11,0,.32a1.48,1.48,0,0,0,0-.21Z" transform="translate(-188.35 -879.46)">
  </path>
  <path class="cls-1" d="M333.74,993.48s0,.1,0,.1h.1Z" transform="translate(-188.35 -879.46)"></path>
  <path class="cls-1" d="M290.51,952.28l0,.56s0-.28,0-.32A1.54,1.54,0,0,0,290.51,952.28Z"
    transform="translate(-188.35 -879.46)"></path>
  <path class="cls-1" d="M289.25,952.51s0,.3,0,.3l0-.61S289.25,952.48,289.25,952.51Z"
    transform="translate(-188.35 -879.46)"></path>
  <path class="cls-1" d="M294.56,999s0,.27,0,.27l0-.68S294.56,999,294.56,999Z" transform="translate(-188.35 -879.46)">
  </path>
  <path class="cls-1" d="M291.25,979v0Z" transform="translate(-188.35 -879.46)"></path>
  <path class="cls-1" d="M291,977.3s0,0,0,0l.12.08A.62.62,0,0,1,291,977.3Z" transform="translate(-188.35 -879.46)">
  </path>
  <path class="cls-1" d="M287.35,1017.91s0,0,0,0l-.08,0,0,.07a0,0,0,0,1,0,0Z" transform="translate(-188.35 -879.46)">
  </path>
  <path class="cls-1" d="M284.85,1017.93s0,.29,0,.32v0h0l0,.27a.24.24,0,0,0,0-.08c0-.05,0-.09,0-.15Z"
    transform="translate(-188.35 -879.46)"></path>
  <path class="cls-1" d="M275.1,960.27l-.06-.15A1.56,1.56,0,0,1,275.1,960.27Z" transform="translate(-188.35 -879.46)">
  </path>
  <path class="cls-1" d="M272.1,962.07v0Z" transform="translate(-188.35 -879.46)"></path>
  <path class="cls-1"
    d="M271.64,1000.33c-.15-.72-.29-1.42-.44-2.12l0,.12v.45l0-.37c.16.76.31,1.52.46,2.26l.1.22-.11-.53Z"
    transform="translate(-188.35 -879.46)"></path>
  <path class="cls-1" d="M260.79,990v.2l0,.46,0-.48.08-.09Z" transform="translate(-188.35 -879.46)"></path>
  <path class="cls-1" d="M257.23,965.29a1.38,1.38,0,0,0,0-.14,1.09,1.09,0,0,0-.05-.17l.06.52Z"
    transform="translate(-188.35 -879.46)"></path>
  <path class="cls-1" d="M257,962.87c0-.06,0-.12,0-.18l-.06-.13C256.93,962.67,256.94,962.77,257,962.87Z"
    transform="translate(-188.35 -879.46)"></path>
  <path class="cls-1" d="M257.17,965c-.07-.69-.15-1.4-.22-2.11l-.12,1C257,964.23,257.06,964.6,257.17,965Z"
    transform="translate(-188.35 -879.46)"></path>
  <path class="cls-1" d="M261.45,1001.93s0,.08,0,.08l.07,0V1002l0,0Z" transform="translate(-188.35 -879.46)"></path>
  <path class="cls-1" d="M256.81,963.78h0v.31l0-.23,0-.08Z" transform="translate(-188.35 -879.46)"></path>
  <path class="cls-1"
    d="M257.51,977.85c-.15-.7-.3-1.38-.45-2.06v.1c0,.11,0,.39,0,.39l0-.23c.16.73.31,1.46.47,2.16,0-.1,0-.22,0-.33h0Z"
    transform="translate(-188.35 -879.46)"></path>
  <path class="cls-1" d="M260,1029.65v-.14a2.07,2.07,0,0,0,0,.22.36.36,0,0,0,0,.11h0v-.19Z"
    transform="translate(-188.35 -879.46)"></path>
  <path class="cls-1" d="M253.43,975.38s0,.31,0,.34v0h0l0,.26a2.11,2.11,0,0,0,0-.25h0Z"
    transform="translate(-188.35 -879.46)"></path>
  <path class="cls-1" d="M257.66,1018.49s0-.38,0-.38v.42h0v.27c0-.09,0-.16,0-.23a.1.1,0,0,0,0,0Z"
    transform="translate(-188.35 -879.46)"></path>
  <path class="cls-1" d="M251,973.94s0,.08,0,.08l.13.08Z" transform="translate(-188.35 -879.46)"></path>
  <path class="cls-1" d="M246.21,975.57l0-.59a2.35,2.35,0,0,1,0,.26h0v0S246.21,975.57,246.21,975.57Z"
    transform="translate(-188.35 -879.46)"></path>
  <path class="cls-1" d="M246,1028.42v0h0l0-.23-.1-.16.11.33,0,.55S246,1028.44,246,1028.42Z"
    transform="translate(-188.35 -879.46)"></path>
  <path class="cls-1" d="M333.62,947.1h0v0l0-.28v0l0,.24Z" transform="translate(-188.35 -879.46)"></path>
  <path class="cls-1" d="M333.63,947.39v-.23S333.63,947.39,333.63,947.39Z" transform="translate(-188.35 -879.46)">
  </path>
  <path class="cls-1" d="M232.59,973.21l0,.51s0-.3,0-.33S232.59,973.21,232.59,973.21Z"
    transform="translate(-188.35 -879.46)"></path>
  <polygon class="cls-1" points="41.52 78.15 41.54 77.98 41.45 78.18 41.52 78.15"></polygon>
  <path class="cls-1" d="M334.12,912.93s0,.26,0,.26l0-.76Z" transform="translate(-188.35 -879.46)"></path>
  <path class="cls-1" d="M212.79,958.39h0v.33l0-.1,0-.22h0Z" transform="translate(-188.35 -879.46)"></path>
  <path class="cls-1" d="M211.7,957.22s0-.59,0-.62v0h0l0-.2,0,.2h.06Z" transform="translate(-188.35 -879.46)"></path>
  <path class="cls-1" d="M206,949.12l0,0a2,2,0,0,1,0-.24v.28Z" transform="translate(-188.35 -879.46)"></path>
  <path class="cls-1"
    d="M200.62,938.6a2.26,2.26,0,0,1,0-.26c-.18-.36-.35-.73-.53-1.1v.3C200.27,937.9,200.44,938.24,200.62,938.6Z"
    transform="translate(-188.35 -879.46)"></path>
</svg>